<?xml version="1.0" standalone="no"?>
<!DOCTYPE svg PUBLIC "-//W3C//DTD SVG 20010904//EN"
 "http://www.w3.org/TR/2001/REC-SVG-20010904/DTD/svg10.dtd">
<svg version="1.0" xmlns="http://www.w3.org/2000/svg"
 width="2331.000000pt" height="848.000000pt" viewBox="0 0 2331.000000 848.000000"
 preserveAspectRatio="xMidYMid meet">
<metadata>
Created by potrace 1.15, written by Peter Selinger 2001-2017
</metadata>
<g transform="translate(0.000000,848.000000) scale(0.100000,-0.100000)"
fill="#000000" stroke="none">
<path d="M1281 8471 c-12 -8 -12 -12 2 -25 15 -15 16 -145 17 -1519 0 -826 4
-1505 8 -1509 5 -5 721 -7 1593 -6 l1584 3 2 1365 c2 751 3 1371 3 1377 0 10
24 12 98 8 95 -5 97 -6 94 -29 -2 -16 6 -29 23 -40 30 -19 34 -4 9 32 -23 33
-10 42 61 39 l65 -3 1 31 c1 27 1 166 -1 253 l0 32 -1772 0 c-1024 0 -1779 -4
-1787 -9z m1864 -450 c142 -42 290 -131 379 -228 39 -43 38 -53 -6 -53 -29 0
-30 2 -24 31 6 31 6 32 -29 26 l-36 -6 7 34 6 34 -33 -9 c-19 -6 -36 -10 -38
-10 -2 0 -1 14 3 31 6 30 5 31 -21 24 -15 -3 -32 -7 -38 -8 -5 -1 -9 11 -7 27
3 26 1 28 -20 22 -45 -14 -53 -12 -56 17 -4 32 -5 32 -38 11 -28 -19 -28 -19
-40 18 l-9 28 -29 -23 -29 -24 74 -23 c41 -13 86 -32 101 -42 14 -10 29 -18
33 -18 3 0 25 -13 48 -29 171 -117 280 -293 302 -486 12 -109 -23 -254 -87
-364 -65 -111 -222 -245 -336 -287 -60 -22 -59 -20 -31 -43 32 -27 36 -26 44
10 5 23 11 29 23 24 47 -20 52 -18 52 15 0 27 3 31 18 25 50 -21 55 -20 47 14
-7 34 -2 37 40 21 27 -10 27 -10 21 25 l-7 36 37 -7 36 -7 -7 32 c-6 28 -4 31
17 31 50 0 50 -15 1 -65 -104 -105 -225 -175 -379 -220 -71 -21 -113 -26 -209
-28 -66 -1 -143 2 -171 6 -170 23 -389 135 -486 248 -40 45 -37 59 10 59 21 0
23 -3 17 -31 -7 -30 -6 -31 27 -27 32 3 33 2 30 -30 -3 -31 -2 -32 23 -22 42
16 46 13 39 -25 -6 -35 -6 -35 21 -25 39 15 45 13 45 -16 0 -23 3 -25 23 -20
44 14 52 12 55 -16 4 -33 5 -33 37 -12 23 15 25 15 30 0 17 -52 14 -50 33 -34
35 31 42 30 53 -2 l11 -31 24 22 c32 30 30 35 -14 43 -136 21 -280 96 -392
203 -41 40 -78 73 -81 73 -3 0 -11 -11 -17 -25 -14 -31 -25 -32 -45 -1 -19 29
-14 36 29 36 l32 0 -48 96 c-38 76 -51 114 -60 182 -27 190 36 377 174 518 76
76 169 142 242 170 48 18 51 29 16 52 -21 14 -22 13 -28 -17 -8 -36 -6 -36
-44 -16 l-30 16 0 -37 c0 -30 -3 -35 -17 -29 -52 21 -56 20 -50 -14 7 -31 5
-33 -17 -27 -13 3 -32 9 -41 12 -14 6 -16 3 -10 -17 4 -13 8 -28 9 -34 1 -11
-55 -8 -66 4 -12 11 120 110 204 152 68 34 167 67 248 83 14 2 95 3 180 1 122
-2 170 -7 225 -24z m862 -1888 c1 -139 0 -260 -3 -268 -6 -13 -130 -15 -1113
-13 l-1106 3 -3 268 -2 267 1112 -2 1113 -3 2 -252z"/>
<path d="M2792 7927 c-335 -41 -593 -306 -593 -607 0 -281 177 -505 476 -600
106 -33 283 -39 396 -12 144 35 245 88 342 181 193 183 240 452 121 684 -75
144 -245 280 -414 332 -68 21 -245 33 -328 22z m212 -182 c187 -40 335 -167
381 -329 50 -172 -30 -358 -200 -468 -253 -165 -618 -72 -746 188 -32 65 -34
75 -34 174 0 97 2 110 31 170 39 80 87 137 157 184 128 84 267 112 411 81z"/>
<path d="M2794 7593 l-26 -58 22 -43 21 -44 -32 -63 -33 -62 46 -94 c55 -114
59 -128 67 -249 6 -95 6 -95 34 -98 33 -4 34 -3 46 124 10 104 36 185 88 267
l25 40 -33 69 -33 68 20 43 21 42 -23 55 -22 55 -81 3 -82 3 -25 -58z"/>
<path d="M2755 7620 c-13 -14 -31 -20 -61 -20 -29 0 -72 -14 -138 -44 l-96
-45 0 -89 0 -90 78 -37 c42 -20 94 -42 115 -48 20 -7 37 -17 37 -22 0 -12 75
-14 86 -3 10 11 -36 77 -50 72 -7 -3 -19 3 -27 12 -11 14 -10 21 8 52 l21 36
-22 44 -21 44 32 26 c24 21 73 106 73 128 0 11 -19 2 -35 -16z"/>
<path d="M3025 7588 c13 -29 38 -65 55 -79 l32 -27 -21 -41 c-21 -41 -21 -41
-2 -79 21 -42 13 -77 -17 -68 -12 4 -23 -4 -34 -25 -28 -48 -24 -56 27 -55 29
1 45 5 45 14 0 6 5 12 11 12 6 0 58 21 115 47 l104 46 0 88 0 87 -96 46 c-68
33 -108 46 -138 46 -28 0 -52 7 -69 20 -14 11 -28 20 -31 20 -3 0 6 -24 19
-52z"/>
<path d="M1916 6332 c-3 -3 -6 -56 -6 -119 l0 -113 99 0 100 0 3 28 3 27 170
6 c94 3 184 10 200 16 29 9 30 12 30 68 l0 59 -65 18 c-53 14 -107 17 -297 17
-127 -1 -234 -3 -237 -7z"/>
<path d="M2597 6333 c-4 -3 -7 -57 -7 -120 l0 -113 99 0 100 0 3 28 3 27 170
6 c94 3 184 10 200 16 29 9 30 12 30 68 l0 59 -70 18 c-57 14 -112 18 -296 18
-124 0 -229 -3 -232 -7z"/>
<path d="M3340 6322 l-65 -17 0 -89 0 -90 50 -13 c63 -16 429 -16 500 0 44 11
50 16 53 40 l3 27 -99 0 c-81 0 -101 -3 -106 -15 -5 -13 -23 -15 -108 -13
l-103 3 0 60 0 60 103 3 c85 2 103 0 108 -13 5 -12 25 -15 106 -15 l99 0 -3
28 c-3 24 -9 29 -68 43 -93 24 -380 24 -470 1z"/>
<path d="M2900 5990 c0 -6 -187 -11 -527 -12 l-528 -3 -3 -32 -3 -33 1055 0
1056 0 0 45 0 45 -525 0 c-340 0 -525 -3 -525 -10z"/>
<path d="M15463 8337 c-7 -11 -5 -328 2 -335 3 -3 158 -5 345 -4 212 1 341 -2
345 -8 4 -6 13 -7 23 -1 11 6 1407 9 3496 10 1913 0 3481 3 3484 6 7 7 6 325
-1 331 -8 8 -7689 9 -7694 1z m2405 -70 c28 -26 28 -56 1 -91 l-21 -26 21 -34
c27 -43 27 -58 -1 -54 -14 2 -31 18 -45 43 -27 48 -48 52 -49 10 -1 -50 -3
-55 -24 -55 -19 0 -20 7 -20 114 l0 115 28 4 c43 7 85 -3 110 -26z m180 27
c40 -11 25 -33 -25 -36 -44 -3 -48 -5 -48 -28 0 -22 5 -26 40 -30 57 -7 55
-34 -3 -38 -42 -3 -43 -4 -40 -35 3 -31 4 -32 45 -29 33 3 44 0 49 -13 9 -24
-12 -35 -68 -35 -72 0 -79 13 -76 133 3 98 4 101 28 108 33 9 70 10 98 3z
m221 -3 c8 -5 11 -16 8 -25 -5 -13 -14 -16 -42 -10 -47 8 -82 -15 -90 -60 -9
-44 1 -73 31 -92 37 -25 74 -11 74 26 0 23 -4 30 -20 30 -13 0 -20 7 -20 20 0
17 7 20 40 20 28 0 40 -4 41 -15 9 -106 3 -122 -54 -130 -57 -9 -111 15 -134
58 -31 61 1 152 62 177 27 12 87 12 104 1z m321 -6 c18 -21 2 -38 -31 -31 -68
13 -78 -20 -16 -54 51 -29 66 -47 67 -81 0 -48 -62 -79 -125 -61 -42 12 -39
37 5 39 19 1 43 2 53 2 25 1 19 40 -8 55 -89 49 -107 87 -59 125 31 25 96 28
114 6z m215 -6 c0 -8 -13 -16 -30 -19 l-30 -5 -5 -95 c-5 -87 -7 -95 -25 -95
-18 0 -20 8 -23 98 l-3 97 -28 0 c-33 0 -44 9 -31 25 14 17 175 11 175 -6z
m168 -11 c23 -27 22 -67 -4 -95 l-22 -22 28 -36 c15 -20 28 -35 30 -33 2 2 21
48 43 103 33 84 43 100 63 103 22 2 28 -8 67 -105 23 -60 42 -112 42 -116 0
-4 -9 -7 -20 -7 -12 0 -26 12 -35 30 -13 26 -21 30 -56 30 -36 0 -41 -3 -50
-30 -10 -28 -15 -30 -60 -30 -47 0 -49 2 -69 40 -11 22 -27 40 -35 40 -11 0
-15 -11 -15 -40 0 -36 -2 -40 -25 -40 l-26 0 3 112 3 113 30 6 c44 9 88 -1
108 -23z m395 19 c19 -13 4 -27 -28 -27 -35 0 -39 -13 -36 -105 4 -82 0 -95
-25 -95 -16 0 -19 10 -21 98 l-3 97 -32 3 c-29 3 -43 19 -28 34 8 8 159 4 173
-5z m325 -8 c54 -42 60 -143 11 -193 -96 -95 -228 23 -168 150 9 19 26 41 38
49 30 22 89 19 119 -6z m536 12 c24 -15 1 -31 -44 -31 -35 0 -45 -4 -50 -20
-9 -30 2 -40 46 -40 32 0 39 -3 39 -19 0 -16 -8 -20 -42 -23 l-43 -3 -1 -43
c-1 -48 -6 -57 -29 -48 -13 5 -15 23 -13 113 3 105 4 107 28 114 36 10 93 10
109 0z m179 -13 c3 -14 -6 -17 -45 -20 -44 -3 -48 -5 -48 -28 0 -22 5 -25 43
-28 34 -3 43 -7 40 -20 -2 -12 -15 -18 -46 -20 -39 -3 -42 -5 -42 -33 0 -28 2
-29 44 -29 52 0 79 -22 47 -39 -25 -14 -81 -14 -115 -1 -25 9 -26 11 -26 107
0 54 4 103 8 110 8 12 45 19 102 18 24 -1 36 -6 38 -17z m180 -1 c3 -14 -5
-17 -47 -17 -50 0 -51 -1 -51 -30 0 -29 2 -30 46 -30 38 0 45 -3 42 -17 -2
-13 -15 -19 -46 -21 -39 -3 -42 -5 -42 -33 0 -16 6 -29 13 -30 6 0 28 -1 47
-2 28 -2 35 -6 35 -22 0 -18 -7 -20 -63 -20 -42 0 -66 5 -71 14 -11 17 -14
192 -3 207 8 14 42 21 97 19 29 -1 41 -6 43 -18z m161 14 c8 -5 11 -16 7 -26
-5 -13 -14 -16 -39 -11 -17 3 -38 2 -46 -3 -13 -8 -13 -12 0 -27 8 -9 29 -23
46 -31 18 -7 40 -25 50 -39 15 -24 15 -29 2 -53 -21 -37 -62 -54 -110 -46 -30
5 -39 11 -39 27 0 18 5 20 39 15 25 -3 47 0 58 8 17 13 17 14 -1 34 -11 12
-24 21 -29 21 -21 0 -77 52 -77 71 0 34 44 69 87 69 21 0 44 -4 52 -9z m-889
-71 c29 -38 56 -70 61 -70 5 0 7 24 4 53 -6 65 1 87 26 87 18 0 19 -8 19 -116
0 -113 0 -115 -22 -112 -14 2 -42 29 -73 70 -27 37 -53 67 -57 67 -5 1 -8 -30
-8 -69 0 -63 -2 -70 -20 -70 -19 0 -20 7 -20 115 0 106 1 115 19 115 12 0 38
-26 71 -70z m-4225 9 c47 -28 85 -54 85 -59 0 -12 -164 -107 -178 -102 -20 6
-15 212 5 212 2 0 42 -23 88 -51z m7465 -64 c0 -68 -4 -94 -13 -98 -7 -3 -36
9 -64 27 -28 17 -65 39 -82 48 -17 9 -31 21 -31 27 0 5 37 32 82 59 61 37 86
48 95 40 9 -7 13 -41 13 -103z"/>
<path d="M19591 8234 c-12 -15 -21 -41 -21 -59 0 -35 33 -85 56 -85 27 0 64
47 64 80 0 80 -58 117 -99 64z"/>
<path d="M17356 7758 c-13 -7 -15 -33 -12 -173 2 -91 2 -165 0 -165 -3 0 -32
28 -67 63 -101 102 -216 144 -346 126 -155 -21 -269 -106 -334 -246 -19 -41
-22 -65 -22 -168 0 -113 2 -124 31 -185 22 -46 48 -81 89 -117 95 -85 151
-103 370 -121 l90 -7 3 -297 2 -298 -55 0 -56 0 3 -37 3 -38 90 1 90 1 5 334
c3 184 3 355 0 380 -5 44 -4 48 46 103 29 31 54 54 57 49 3 -4 4 -200 3 -436
0 -235 1 -428 4 -428 23 -6 62 -3 67 5 5 7 8 1587 3 1647 0 11 -47 16 -64 7z
m-496 -283 c12 -32 18 -31 30 1 14 37 44 28 48 -14 4 -41 14 -41 35 3 21 44
34 44 52 1 21 -49 35 -54 35 -13 0 35 12 47 50 47 28 0 53 -29 40 -45 -8 -10
-8 -19 0 -35 9 -16 8 -22 -6 -27 -10 -4 -22 0 -29 11 -11 14 -14 14 -18 2 -5
-11 -33 -14 -149 -13 l-143 2 4 45 c1 25 5 48 8 53 9 16 34 6 43 -18z m-105
-160 c0 -15 -8 -21 -33 -23 -35 -4 -40 -24 -6 -31 75 -13 69 -117 -9 -136 -33
-9 -79 11 -75 33 3 13 13 17 43 17 33 0 40 3 40 20 0 14 -8 21 -25 23 -38 6
-50 21 -50 61 0 50 15 63 70 59 37 -2 45 -6 45 -23z m139 10 c14 -11 17 -23
14 -52 -3 -21 0 -46 6 -55 15 -25 -4 -70 -37 -86 -36 -17 -82 -4 -82 24 0 15
7 19 35 19 28 0 35 4 35 20 0 13 -8 21 -22 23 -29 4 -30 32 -3 39 35 9 20 39
-18 35 -22 -3 -32 1 -32 10 0 37 66 51 104 23z m94 -18 c4 -35 13 -34 40 3 13
17 29 30 37 30 23 0 18 -35 -10 -68 -14 -17 -25 -33 -25 -37 0 -4 14 -23 30
-42 53 -60 30 -97 -25 -39 -38 40 -47 44 -44 19 3 -34 -1 -43 -21 -43 -11 0
-20 6 -21 13 -5 66 -3 166 4 180 12 25 31 16 35 -16z m198 -34 c23 -45 35 -58
43 -50 6 6 11 16 11 22 0 18 29 71 46 86 23 19 30 1 38 -98 7 -92 4 -103 -24
-103 -15 0 -19 9 -22 43 l-3 42 -19 -42 c-25 -54 -50 -57 -66 -8 -14 44 -28
45 -32 3 -2 -25 -8 -33 -23 -33 -18 0 -20 8 -23 76 -3 80 10 133 31 127 6 -2
26 -31 43 -65z m-401 -229 c11 -11 15 -11 26 2 12 14 15 14 31 -5 16 -21 17
-21 27 -3 6 12 20 19 38 18 24 -1 29 -6 33 -36 4 -27 10 -36 28 -38 25 -4 27
1 10 27 -16 26 6 53 41 49 20 -2 25 -8 23 -24 -3 -23 21 -49 38 -39 15 9 12
25 -6 25 -19 0 -14 20 9 34 12 8 23 7 38 -2 15 -10 24 -11 32 -3 6 6 22 11 35
11 21 0 23 -4 18 -25 -4 -14 -4 -25 0 -25 3 0 15 11 26 25 34 43 78 27 78 -29
0 -31 -24 -66 -45 -66 -7 0 -18 7 -25 15 -10 12 -15 12 -35 -1 -18 -12 -28
-13 -44 -5 -13 7 -22 8 -26 1 -8 -14 -58 -13 -73 2 -8 8 -15 8 -24 1 -17 -14
-110 -14 -125 -1 -7 6 -13 20 -13 32 -1 19 -2 18 -16 -6 -17 -32 -31 -35 -50
-10 -12 16 -13 16 -19 0 -11 -29 -33 -21 -45 16 -8 24 -16 33 -26 29 -19 -7
-18 -23 4 -39 25 -18 3 -36 -39 -32 -39 3 -50 29 -24 54 14 15 14 17 -1 29 -9
6 -14 17 -10 24 10 15 94 11 111 -5z"/>
<path d="M15459 7673 c-1 -49 0 -168 1 -266 2 -173 1 -180 -21 -203 l-22 -24
21 0 22 0 2 -542 3 -543 29 -3 c16 -2 32 0 37 5 6 6 14 1361 9 1651 0 7 -15
12 -40 12 l-40 0 -1 -87z"/>
<path d="M19249 7753 c0 -5 0 -104 1 -222 1 -180 -1 -212 -12 -200 -8 8 -20
29 -28 48 -20 50 -83 125 -132 159 -71 48 -153 74 -240 74 -79 0 -99 -5 -198
-49 -180 -81 -265 -323 -188 -532 15 -40 40 -73 92 -126 94 -95 156 -119 302
-120 70 0 107 -5 118 -14 10 -8 29 -12 49 -9 17 3 38 3 45 1 9 -4 12 -72 12
-298 l0 -294 -57 -3 c-57 -3 -58 -4 -61 -34 -4 -43 27 -56 110 -44 34 5 69 10
76 10 9 0 12 81 12 370 l0 370 -29 0 c-17 0 -32 4 -35 8 -3 5 18 30 45 57 28
27 62 71 75 96 13 26 28 50 34 54 7 4 10 -150 10 -473 l0 -480 28 -5 c15 -3
31 -2 35 2 8 8 18 1626 9 1649 -4 13 -71 17 -73 5z m-532 -293 c7 -26 20 -26
28 1 11 34 49 21 53 -18 4 -43 15 -42 31 2 16 46 36 44 63 -7 l22 -43 6 40 c5
38 7 40 41 43 45 4 66 -17 48 -46 -10 -16 -10 -23 0 -36 11 -13 11 -17 -3 -22
-10 -4 -22 0 -30 11 -12 16 -13 16 -19 1 -7 -19 -67 -22 -84 -5 -8 8 -17 8
-31 0 -27 -14 -82 -14 -82 0 0 8 -5 8 -15 -1 -12 -10 -18 -10 -29 -1 -10 8
-16 9 -21 1 -3 -5 -13 -10 -21 -10 -10 0 -14 13 -14 48 0 27 3 52 7 55 14 14
45 6 50 -13z m-102 -183 c22 -31 18 -52 -15 -90 -36 -42 -37 -47 -6 -47 27 0
40 -22 23 -39 -15 -15 -99 -14 -121 2 -18 13 -15 18 33 71 29 32 50 63 48 69
-2 7 -19 11 -39 9 -39 -4 -56 11 -38 33 24 29 92 24 115 -8z m235 -7 c0 -16 4
-30 10 -30 5 0 16 14 25 30 11 21 23 30 40 30 32 0 31 -7 -6 -58 l-31 -42 32
-40 c30 -38 35 -70 10 -70 -6 0 -27 17 -45 38 l-35 37 0 -32 c0 -37 -18 -53
-35 -30 -9 12 -12 123 -6 190 1 4 10 7 21 7 16 0 20 -7 20 -30z m197 -30 c26
-62 40 -73 49 -42 18 58 46 103 62 100 14 -3 18 -20 25 -92 5 -61 4 -92 -3
-101 -17 -21 -40 -6 -40 24 0 44 -12 44 -31 1 -22 -48 -37 -45 -67 13 l-21 42
0 -41 c-1 -25 -6 -44 -14 -47 -29 -11 -38 9 -36 84 1 98 7 119 30 119 14 0 27
-17 46 -60z m-407 -195 c12 -14 15 -14 30 0 17 15 19 14 34 -7 9 -12 16 -17
16 -11 0 18 33 33 58 26 15 -3 22 -14 24 -37 2 -23 8 -32 26 -34 25 -4 27 1
10 27 -16 26 6 53 41 49 20 -2 25 -8 23 -24 -3 -23 21 -49 38 -39 15 9 12 25
-6 25 -19 0 -14 20 9 34 12 8 22 8 35 0 11 -8 24 -8 39 -1 30 14 53 3 46 -22
-8 -29 11 -26 25 4 13 29 38 32 64 8 29 -26 24 -62 -15 -92 -15 -12 -20 -11
-37 4 -17 15 -22 16 -36 4 -20 -17 -110 -22 -137 -8 -11 7 -23 7 -30 1 -16
-13 -109 -13 -124 0 -7 6 -13 22 -14 37 -1 25 -1 25 -15 -6 -14 -34 -44 -45
-44 -18 0 8 -5 15 -10 15 -6 0 -13 -7 -16 -15 -10 -26 -32 -16 -44 20 -12 37
-27 45 -37 20 -3 -9 2 -22 12 -29 34 -25 -12 -48 -59 -30 -21 8 -21 38 0 55
14 12 14 14 -1 25 -9 7 -14 17 -10 23 10 17 91 13 105 -4z"/>
<path d="M21156 7752 c-3 -5 -6 -266 -7 -580 -1 -471 -4 -574 -15 -583 -17
-14 -18 -30 -1 -26 9 1 13 -51 15 -231 3 -251 3 -252 56 -238 l25 6 0 163 c0
89 0 261 -1 382 0 121 -1 420 -2 665 l-1 445 -32 3 c-17 2 -34 -1 -37 -6z"/>
<path d="M23039 7758 c-5 -14 -4 -1660 1 -1663 4 -2 23 -2 42 1 l36 6 -2 827
-1 826 -37 3 c-21 2 -39 2 -39 0z"/>
<path d="M20560 7599 c-13 -5 -33 -9 -45 -7 -28 4 -146 -104 -190 -172 -55
-88 -74 -233 -45 -350 15 -60 66 -137 124 -188 97 -85 250 -122 370 -90 39 10
48 10 63 -4 11 -10 40 -18 73 -20 l55 -3 3 -139 c1 -80 -2 -144 -7 -150 -7 -8
-7 -35 0 -77 5 -36 9 -101 7 -144 l-3 -80 -55 -5 -55 -5 0 -35 0 -35 70 1 c39
1 81 2 95 3 l25 1 0 373 0 372 -35 0 c-19 0 -48 -4 -63 -8 -24 -7 -28 -5 -25
10 2 10 18 25 35 33 18 8 33 19 33 23 0 5 11 23 25 41 13 18 36 63 51 102 42
112 33 248 -23 358 -40 78 -147 162 -242 190 -60 18 -202 21 -241 5z m-3 -139
c3 -11 8 -20 12 -20 3 0 12 9 19 20 7 11 21 20 32 20 15 0 19 -8 22 -42 l3
-43 23 43 c12 23 28 42 35 42 7 0 19 -16 26 -36 14 -38 27 -36 33 6 2 21 9 26
40 28 28 2 39 -1 47 -17 8 -14 8 -22 0 -26 -6 -4 -7 -19 -4 -36 5 -23 3 -29
-10 -29 -8 0 -18 7 -21 15 -4 8 -10 15 -15 15 -5 0 -9 -7 -9 -15 0 -18 -60
-21 -78 -3 -8 8 -15 8 -25 -1 -19 -15 -129 -9 -135 8 -3 8 -8 7 -16 -5 -7 -9
-18 -14 -24 -10 -13 8 -17 88 -5 99 14 14 45 6 50 -13z m38 -166 c19 -21 25
-38 25 -75 0 -62 -15 -95 -52 -110 -25 -10 -33 -9 -56 8 -15 11 -30 36 -35 57
-26 107 55 188 118 120z m95 -10 c0 -29 16 -32 25 -4 12 36 66 50 65 17 -1 -7
-14 -27 -30 -46 l-28 -33 34 -45 c19 -25 33 -50 31 -56 -7 -23 -29 -17 -62 18
l-33 37 -4 -28 c-2 -21 -9 -30 -25 -32 -23 -3 -23 -1 -23 96 0 71 4 102 13
105 22 7 37 -4 37 -29z m194 -36 c15 -34 30 -57 35 -52 5 5 16 30 26 56 40
108 75 83 75 -55 0 -86 -1 -88 -22 -85 -19 2 -24 11 -28 43 l-5 40 -17 -42
c-22 -54 -44 -55 -66 -3 -22 51 -32 51 -32 0 0 -33 -3 -40 -19 -40 -26 0 -29
12 -23 105 7 124 32 135 76 33z m-404 -203 c12 -14 15 -14 31 0 16 15 18 15
27 -1 9 -17 11 -17 27 0 10 9 24 15 32 12 8 -3 21 -6 28 -6 8 0 15 -13 17 -32
2 -25 8 -34 26 -36 25 -4 27 1 10 27 -16 27 5 51 44 51 27 0 30 -3 24 -24 -3
-14 -2 -28 4 -31 15 -9 12 -31 -5 -49 -11 -10 -31 -14 -68 -12 -65 3 -77 10
-77 42 0 14 -4 22 -10 19 -5 -3 -10 -15 -10 -26 0 -27 -30 -37 -46 -14 -12 16
-14 17 -20 2 -10 -28 -32 -19 -45 18 -14 39 -21 42 -38 21 -10 -12 -8 -17 9
-26 17 -9 19 -14 9 -26 -15 -18 -50 -18 -74 0 -19 14 -19 15 -2 33 20 23 22
40 5 45 -6 2 -8 10 -4 16 11 18 91 15 106 -3z m426 -10 c-4 -14 -2 -25 4 -25
5 0 10 5 10 11 0 16 31 38 52 39 38 0 51 -75 18 -105 -18 -17 -21 -17 -45 -1
-23 15 -27 15 -41 1 -8 -8 -22 -15 -29 -15 -19 0 -39 37 -25 45 7 4 6 13 -1
26 -14 26 4 49 38 49 22 0 24 -3 19 -25z"/>
<path d="M22357 7590 c-176 -62 -280 -209 -279 -395 0 -219 155 -389 374 -411
193 -19 372 94 434 276 29 86 25 216 -10 302 -33 81 -121 170 -211 213 -81 40
-219 46 -308 15z m15 -132 l15 -22 12 22 c6 12 21 22 31 22 16 0 20 -7 20 -35
0 -19 4 -35 9 -35 5 0 16 16 25 35 22 46 40 44 62 -7 l18 -43 5 40 c6 37 9 40
41 43 42 4 65 -20 48 -48 -9 -14 -9 -22 1 -34 11 -13 11 -17 -3 -22 -9 -3 -23
-1 -30 5 -10 8 -16 9 -21 1 -8 -14 -68 -13 -83 2 -8 8 -15 8 -25 0 -16 -14
-127 -11 -127 3 0 5 -5 4 -12 -3 -26 -26 -38 -13 -38 43 0 47 3 55 19 55 10 0
25 -10 33 -22z m-37 -173 c0 -15 -8 -21 -32 -23 -42 -4 -42 -15 -1 -33 46 -20
59 -60 31 -97 -17 -23 -27 -27 -69 -27 -44 0 -49 3 -52 23 -3 22 -1 23 40 20
37 -3 43 0 43 17 0 15 -10 22 -37 29 -37 9 -38 11 -38 56 0 26 3 50 7 54 4 4
30 6 58 4 42 -3 50 -6 50 -23z m76 13 c1 -7 1 -21 0 -30 -3 -27 15 -21 39 12
12 17 28 30 35 30 28 0 26 -23 -5 -61 l-31 -39 35 -44 c42 -51 45 -66 12 -66
-16 0 -32 11 -46 30 -12 17 -26 30 -31 30 -5 0 -9 -13 -9 -30 0 -23 -4 -30
-20 -30 -19 0 -20 7 -20 98 0 54 3 102 7 105 11 12 33 8 34 -5z m197 -48 c15
-32 31 -58 37 -56 5 1 19 26 30 54 21 55 39 70 62 51 10 -9 13 -34 11 -103 -3
-83 -5 -91 -23 -91 -15 0 -21 8 -23 33 -4 42 -15 41 -31 -3 -16 -44 -38 -45
-56 -1 -21 49 -33 52 -37 9 -2 -30 -7 -38 -23 -38 -19 0 -20 5 -16 95 2 52 5
98 8 103 13 21 37 1 61 -53z m-307 -210 c8 -13 10 -13 19 0 7 12 13 13 28 3
11 -6 23 -8 28 -3 5 4 23 10 39 12 28 3 30 0 35 -32 4 -29 10 -36 33 -38 15
-2 27 1 27 7 0 6 -4 11 -10 11 -5 0 -10 11 -10 24 0 25 16 36 52 36 16 0 19
-5 14 -24 -3 -14 -2 -28 4 -31 16 -10 11 -44 -7 -54 -10 -5 -42 -8 -72 -7 -54
1 -55 2 -64 36 l-10 35 -13 -32 c-14 -33 -44 -45 -44 -18 0 8 -4 15 -9 15 -5
0 -11 -7 -15 -15 -10 -26 -34 -16 -46 19 -8 24 -16 33 -26 29 -19 -7 -18 -23
3 -38 32 -24 -15 -47 -61 -29 -20 8 -21 38 -1 54 14 12 14 15 0 30 -8 9 -12
20 -8 24 12 12 104 1 114 -14z m422 3 c-4 -18 12 -16 27 2 19 22 47 18 66 -10
18 -27 13 -54 -16 -80 -18 -16 -22 -16 -42 -3 -20 13 -26 13 -44 1 -36 -23
-54 -7 -54 46 0 26 3 51 7 55 12 11 58 2 56 -11z"/>
<path d="M19734 7307 c-33 -18 -43 -40 -44 -95 0 -43 5 -57 25 -77 42 -42 87
-28 106 34 26 86 -28 171 -87 138z"/>
<path d="M16345 7298 c-8 -27 -15 -155 -10 -170 13 -33 35 -7 35 39 0 52 14
49 37 -8 20 -50 39 -50 59 1 21 51 34 51 34 1 0 -41 14 -61 32 -43 6 6 7 41 1
98 -10 108 -27 117 -60 34 -12 -30 -26 -56 -32 -58 -5 -2 -24 24 -41 57 -29
59 -46 74 -55 49z"/>
<path d="M19857 7303 c-12 -12 -8 -168 5 -181 20 -20 28 -14 28 23 0 19 4 35
9 35 5 0 21 -16 35 -35 27 -35 56 -46 56 -22 0 7 -13 28 -30 47 -16 19 -29 39
-30 44 0 5 11 24 25 42 14 18 25 37 25 43 0 22 -32 10 -48 -19 -22 -39 -42
-39 -42 0 0 28 -17 40 -33 23z"/>
<path d="M20026 7225 c-7 -89 -4 -105 20 -105 10 0 14 12 14 40 0 51 13 51 33
-1 20 -50 45 -50 62 1 15 44 29 42 35 -6 5 -38 24 -56 32 -32 3 7 2 51 -1 97
-8 107 -22 115 -59 32 -15 -34 -32 -61 -38 -61 -6 0 -23 27 -37 60 -38 86 -53
79 -61 -25z"/>
<path d="M18005 7287 c-3 -7 -5 -52 -3 -98 2 -67 6 -84 18 -84 10 0 17 13 20
35 l5 35 29 -37 c26 -35 66 -52 66 -28 0 5 -16 28 -36 50 l-36 40 31 39 c34
43 39 61 16 61 -9 0 -25 -16 -36 -35 -26 -43 -37 -44 -41 -3 -3 33 -24 49 -33
25z"/>
<path d="M18176 7284 c-3 -9 -6 -54 -6 -100 0 -68 3 -84 15 -84 11 0 15 11 15
39 0 56 16 59 39 6 11 -25 25 -45 31 -45 6 0 19 18 27 40 20 50 31 51 35 3 2
-27 8 -39 21 -41 15 -3 17 6 17 78 0 91 -12 129 -36 109 -8 -6 -14 -16 -14
-21 0 -16 -40 -98 -48 -98 -4 0 -22 29 -40 65 -32 66 -45 77 -56 49z"/>
<path d="M21626 7283 c-3 -10 -3 -49 -1 -88 2 -38 5 -73 5 -77 0 -5 7 -8 15
-8 10 0 15 10 15 30 0 39 9 38 48 -6 30 -34 52 -38 52 -10 0 7 -13 25 -30 41
-36 35 -37 39 -5 81 14 18 25 37 25 43 0 22 -29 10 -50 -19 -12 -16 -26 -30
-31 -30 -5 0 -9 14 -9 30 0 33 -25 42 -34 13z"/>
<path d="M21796 7214 c-7 -86 0 -114 24 -99 6 4 11 19 10 33 -5 65 11 65 37 1
16 -41 40 -51 49 -21 26 81 44 90 44 21 0 -33 3 -40 18 -37 15 3 17 14 13 88
-1 47 -7 89 -12 94 -13 15 -33 -9 -53 -63 -10 -28 -23 -51 -30 -51 -6 1 -23
28 -38 60 -39 86 -54 79 -62 -26z"/>
<path d="M15633 6843 c-8 -6 -11 -108 -12 -376 l0 -367 27 -1 c15 -1 60 -3
100 -5 l73 -4 -3 42 -3 42 -58 -3 -57 -2 2 298 3 298 55 5 c54 5 55 6 58 38
l3 32 -53 0 c-29 0 -69 3 -88 5 -19 3 -40 2 -47 -2z"/>
<path d="M17525 6470 c0 -203 2 -370 5 -371 3 0 46 -1 95 -2 l90 -2 3 37 3 37
-58 3 -58 3 -1 285 c0 162 4 290 9 298 5 7 31 12 59 12 l49 0 -3 33 -3 32 -95
3 -95 3 0 -371z"/>
<path d="M19429 6833 c-3 -41 2 -727 6 -733 5 -9 166 -7 181 2 6 4 9 21 6 37
-4 28 -7 30 -56 33 l-51 3 0 295 0 295 50 3 c59 4 70 12 61 46 -6 26 -8 26
-101 26 -52 0 -95 -3 -96 -7z"/>
<path d="M21328 6503 c-2 -186 -1 -354 2 -373 l5 -35 95 0 95 0 0 35 0 35 -58
3 -57 3 2 297 3 297 53 3 52 3 0 35 0 34 -95 0 -94 0 -3 -337z"/>
<path d="M22764 6826 c-3 -8 -4 -25 -2 -37 3 -20 9 -22 58 -23 l55 -1 0 -295
0 -295 -55 -5 -55 -5 0 -35 c0 -39 -11 -36 137 -32 l57 2 0 370 0 370 -95 0
c-73 0 -96 -3 -100 -14z"/>
<path d="M14110 6785 c0 -25 -1 -25 -85 -25 -80 0 -86 -2 -94 -23 -5 -12 -26
-104 -46 -202 -21 -99 -39 -182 -41 -184 -5 -6 -8 7 -50 206 -21 101 -40 187
-43 192 -4 5 -49 10 -101 11 -164 3 -170 3 -170 -20 0 -11 4 -28 10 -38 12
-21 147 -428 189 -572 26 -86 31 -120 30 -195 -1 -49 -1 -156 0 -236 l1 -145
124 0 c68 1 128 5 133 9 4 5 9 120 10 255 l1 247 87 255 c151 447 148 435 105
443 -20 5 -34 14 -37 27 -7 28 -23 25 -23 -5z"/>
<path d="M8305 6762 l-200 -2 2 -370 c2 -320 0 -370 -12 -370 -8 0 -15 7 -15
16 0 9 -11 27 -25 40 -14 13 -25 33 -25 45 0 34 -22 89 -36 89 -24 0 -64 -20
-64 -31 0 -7 10 -9 28 -6 37 8 57 -5 47 -29 -5 -11 -9 -23 -10 -29 0 -5 -6
-19 -12 -29 -10 -18 -12 -19 -34 -3 -13 9 -42 32 -64 51 l-40 35 37 38 c30 29
40 35 50 25 7 -7 15 -12 19 -12 3 0 7 87 8 194 l2 195 -77 75 -77 76 -234 0
-233 0 0 -137 c-1 -558 -3 -736 -10 -788 -4 -33 -8 -50 -9 -37 0 12 -7 22 -16
22 -8 0 -15 -2 -15 -5 0 -10 26 -61 37 -73 9 -9 13 -44 13 -103 l0 -89 231 0
230 1 81 77 c50 48 88 76 99 75 20 -3 26 21 9 32 -7 4 -8 31 -5 68 8 81 8 100
5 174 -2 40 2 68 10 78 17 21 30 19 30 -5 0 -14 7 -20 21 -20 12 0 23 -8 26
-20 3 -11 12 -20 19 -20 24 0 15 -18 -16 -32 -16 -7 -30 -16 -30 -20 0 -5 14
-8 30 -8 28 0 30 -2 30 -39 0 -22 -4 -42 -9 -46 -6 -3 -17 -19 -25 -36 -14
-29 -14 -30 10 -39 22 -9 24 -15 24 -71 0 -52 -3 -62 -20 -66 -11 -3 -20 -9
-20 -14 0 -5 9 -9 20 -9 15 0 20 -7 20 -30 l0 -29 248 2 247 2 5 45 c3 25 3
77 0 115 l-5 70 -113 3 -113 3 3 142 3 142 87 0 c48 0 90 4 94 8 8 8 8 190 -1
216 -4 13 -21 16 -92 16 l-88 0 0 105 0 105 55 -2 c171 -8 172 -8 170 96 -2
98 -2 101 8 101 5 0 23 -48 41 -107 18 -60 37 -117 42 -128 19 -43 37 -111 37
-138 0 -15 6 -35 15 -45 8 -9 31 -69 51 -133 l36 -117 0 -252 0 -252 128 3
c70 1 132 6 138 10 7 6 9 72 8 200 -2 106 1 199 5 207 5 9 5 25 -1 38 -8 17 6
70 66 260 43 132 83 255 91 274 14 37 65 204 65 214 0 4 -64 5 -142 4 l-143
-3 -2 -54 c-2 -29 -7 -59 -12 -65 -6 -7 -10 -21 -9 -31 0 -11 -5 -40 -10 -65
-6 -25 -16 -73 -24 -107 -7 -35 -16 -63 -19 -63 -13 0 -30 103 -19 114 13 13
13 29 0 21 -15 -9 -25 24 -11 38 15 15 14 27 -3 21 -14 -5 -29 40 -41 123 -11
70 -15 72 -151 74 -66 1 -125 0 -130 -3 -5 -3 -34 -2 -64 1 -30 3 -145 5 -255
3z m-624 -242 l29 0 0 -81 c0 -84 -10 -119 -35 -119 -8 0 -15 -5 -15 -11 0 -7
10 -9 25 -7 17 4 25 1 25 -8 0 -10 -14 -14 -50 -14 l-50 0 0 118 c0 65 3 122
7 126 4 3 13 4 21 1 7 -3 27 -5 43 -5z m29 -605 l0 -125 -44 0 c-54 0 -56 5
-56 148 l0 102 50 0 50 0 0 -125z"/>
<path d="M12190 6755 c-7 -9 -25 -123 -61 -392 -9 -64 -17 -93 -26 -93 -15 0
-16 -10 -4 -42 12 -33 -7 -138 -25 -138 -8 0 -14 -7 -14 -15 0 -9 6 -12 15 -8
17 6 18 18 -10 -187 -38 -270 -43 -315 -38 -320 2 -3 61 -6 129 -7 146 -2 139
-7 143 116 3 106 9 115 81 108 32 -3 63 -8 68 -11 6 -3 13 -46 17 -94 4 -49
10 -94 14 -101 9 -14 231 -24 251 -11 10 6 10 31 -3 122 -36 260 -98 690 -111
777 -12 73 -12 98 -3 109 9 11 8 17 -5 26 -10 7 -18 36 -23 84 -4 41 -12 75
-19 77 -27 10 -368 9 -376 0z m203 -312 c2 -32 0 -63 -5 -70 -5 -7 -5 -14 1
-17 10 -7 19 -56 25 -146 3 -30 8 -88 12 -127 l7 -73 -53 0 -53 0 6 63 c6 52
15 161 32 382 4 48 3 45 14 45 5 0 11 -26 14 -57z"/>
<path d="M9505 6748 c-11 -6 -23 -16 -27 -22 -4 -6 -35 -39 -70 -74 l-63 -62
0 -423 c0 -232 -4 -434 -9 -449 -5 -19 -4 -28 3 -28 6 0 8 7 4 16 -11 28 26 0
106 -80 l74 -74 153 2 c84 1 155 4 156 7 2 2 38 41 81 85 l77 82 0 429 0 430
-90 87 -89 86 -143 0 c-88 0 -151 -5 -163 -12z m212 -535 c2 -269 0 -313 -12
-313 -8 0 -15 -7 -15 -15 0 -8 6 -14 13 -12 8 1 12 -11 12 -38 l0 -40 -50 0
-50 0 1 351 c0 193 4 358 7 368 5 13 16 16 49 14 l43 -3 2 -312z"/>
<path d="M10118 6368 c-2 -216 -1 -487 2 -603 l5 -210 118 0 c66 0 121 4 124
8 3 5 5 129 4 275 0 160 3 262 8 256 6 -5 19 -43 29 -84 11 -41 29 -104 40
-140 11 -36 35 -112 52 -170 18 -58 35 -114 40 -125 7 -19 17 -21 121 -23
l114 -1 -2 602 -2 602 -126 3 c-114 2 -125 1 -125 -15 0 -10 0 -133 0 -273 0
-152 -3 -251 -8 -245 -5 6 -33 91 -62 190 -29 99 -64 216 -79 260 l-26 80
-112 3 -113 3 -2 -393z"/>
<path d="M10892 6735 c-7 -15 -8 -25 -2 -25 6 0 11 -213 12 -577 l3 -578 232
-2 233 -2 82 85 c46 47 86 95 89 107 3 12 5 208 5 435 l-1 412 -90 85 -90 84
-231 1 -231 0 -11 -25z m383 -515 c0 -168 -1 -332 -3 -365 l-4 -61 -49 -2 -49
-2 0 363 c0 200 3 367 7 371 4 4 28 6 52 4 l45 -3 1 -305z"/>
<path d="M12775 6750 c-4 -6 -5 -54 -4 -108 4 -154 0 -244 -11 -237 -5 3 -10
2 -10 -4 0 -5 6 -11 12 -13 10 -4 13 -96 13 -419 l0 -414 125 1 125 0 5 280
c4 250 6 274 18 231 7 -26 35 -123 63 -215 28 -92 55 -180 59 -197 19 -69 23
-81 33 -92 10 -14 58 -16 160 -6 l67 6 -2 596 -3 596 -125 0 -125 0 -2 -263
c-1 -145 -3 -266 -6 -268 -2 -3 -17 42 -32 98 -15 57 -45 157 -66 223 -21 66
-44 140 -51 165 l-13 45 -112 3 c-70 2 -114 -1 -118 -8z"/>
<path d="M20110 6723 c-53 -19 -70 -131 -27 -171 54 -51 117 -10 117 75 0 70
-41 113 -90 96z"/>
<path d="M18095 6707 c-3 -7 -5 -49 -3 -93 2 -62 6 -79 18 -79 10 0 16 12 18
37 2 28 8 37 27 42 40 10 55 -2 55 -46 0 -31 3 -39 16 -36 23 4 27 183 4 183
-10 0 -17 -13 -20 -35 -5 -32 -8 -35 -40 -35 -32 0 -35 3 -40 34 -5 36 -26 53
-35 28z"/>
<path d="M18299 6649 c-41 -41 -6 -130 44 -114 12 4 34 6 48 6 25 -1 26 0 21
51 -2 29 -7 56 -11 59 -3 4 -23 9 -44 12 -30 5 -42 2 -58 -14z"/>
<path d="M20374 6661 c-2 -2 -4 -33 -4 -68 0 -56 2 -64 18 -61 13 3 17 14 17
48 0 39 3 45 23 48 20 3 22 0 22 -48 0 -44 3 -51 18 -48 13 2 18 15 20 51 3
43 5 48 25 45 19 -3 22 -10 25 -51 3 -39 6 -48 20 -45 24 4 29 81 8 113 -15
23 -21 24 -102 22 -47 -1 -87 -4 -90 -6z"/>
<path d="M22228 6663 l-38 -4 0 -59 c0 -84 31 -93 37 -11 2 34 18 54 38 48 6
-2 11 -25 13 -50 2 -33 7 -47 18 -47 10 0 14 12 14 39 0 40 23 72 40 55 5 -5
10 -27 12 -49 2 -28 8 -41 21 -43 14 -3 17 4 17 46 0 61 -24 89 -67 77 -30 -9
-30 -9 -53 -2 -8 2 -32 2 -52 0z"/>
<path d="M16003 6452 c-6 -4 -21 -33 -33 -65 -12 -31 -26 -57 -31 -57 -5 0
-22 27 -39 61 -22 43 -36 59 -48 57 -15 -3 -17 -16 -17 -93 0 -73 3 -90 15
-90 10 0 17 14 20 45 5 48 8 47 40 -14 21 -40 32 -38 55 12 11 23 23 42 27 42
4 0 8 -19 10 -42 2 -30 8 -43 18 -43 12 0 16 17 18 80 3 82 -10 123 -35 107z"/>
<path d="M20287 6454 c-8 -9 -10 -178 -1 -187 14 -13 34 7 34 34 0 16 3 29 7
29 4 0 22 -16 40 -37 24 -25 37 -33 44 -26 8 8 6 19 -7 38 -16 25 -16 28 0 56
15 26 15 31 1 59 -11 22 -23 30 -43 30 -15 0 -36 3 -47 6 -11 3 -24 2 -28 -2z"/>
<path d="M17736 6368 c-7 -80 0 -108 23 -93 7 3 10 23 9 42 -4 51 14 51 40 -2
12 -25 26 -45 32 -45 6 0 17 18 26 40 9 22 22 40 30 40 10 0 14 -12 14 -40 0
-29 4 -40 15 -40 13 0 15 14 11 88 -5 109 -20 117 -60 32 -16 -33 -33 -60 -37
-60 -5 0 -22 27 -39 60 -42 83 -56 79 -64 -22z"/>
<path d="M22188 6440 c-1 -5 -2 -46 0 -90 3 -61 7 -80 18 -80 9 0 14 11 14 30
0 40 18 38 57 -7 37 -45 54 -38 27 12 -14 27 -16 37 -6 47 15 15 16 53 2 79
-8 15 -21 19 -60 19 -26 0 -50 -4 -52 -10z"/>
<path d="M16275 6402 c-16 -2 -33 -9 -37 -15 -13 -21 -9 -104 6 -116 19 -16
37 8 34 46 -2 34 8 53 28 53 10 0 14 -12 14 -38 0 -58 46 -90 90 -62 9 5 19 5
27 -2 20 -16 22 -9 16 65 l-6 67 -39 0 c-22 0 -48 -5 -59 -11 -16 -8 -23 -7
-32 3 -7 8 -25 12 -42 10z"/>
<path d="M16793 6395 c-69 -29 -53 -135 21 -135 62 0 97 65 61 117 -19 27 -46
33 -82 18z"/>
<path d="M16085 6377 c-21 -29 -19 -70 4 -98 17 -22 22 -23 50 -12 17 6 40 9
51 6 18 -5 19 -1 14 48 -8 77 -8 76 -58 77 -36 1 -49 -3 -61 -21z"/>
<path d="M17989 6379 c-24 -24 -24 -70 0 -100 17 -22 22 -23 50 -12 17 6 39 9
50 6 16 -4 18 0 14 49 -3 29 -6 57 -7 62 -1 4 -21 10 -45 11 -32 3 -47 -1 -62
-16z"/>
<path d="M18240 6373 c-26 -34 -25 -56 4 -90 22 -25 26 -26 49 -14 13 7 33 10
44 7 17 -6 20 -1 21 42 1 62 -7 74 -57 77 -34 3 -44 -1 -61 -22z"/>
<path d="M18671 6374 c-24 -30 -24 -34 -11 -68 20 -54 98 -59 120 -7 32 77
-59 139 -109 75z"/>
<path d="M10 6243 l0 -90 206 -408 c202 -401 205 -408 176 -402 -19 4 -32 2
-35 -6 -3 -8 -34 -12 -100 -11 -86 2 -97 0 -102 -17 -7 -21 -20 -25 -30 -9 -3
6 -11 10 -16 10 -6 0 -8 -4 -5 -9 8 -13 -19 -32 -37 -26 -9 4 -21 -2 -29 -14
-8 -12 -18 -18 -21 -14 -4 3 -7 -187 -7 -423 0 -293 4 -424 10 -414 8 11 8 6
3 -15 -4 -16 -8 -84 -8 -150 0 -116 1 -120 21 -117 12 1 26 -4 33 -12 10 -12
6 -19 -23 -38 l-36 -23 1 -180 c1 -99 4 -169 8 -155 5 19 8 21 13 9 7 -19 -1
-67 -13 -75 -5 -3 -9 -667 -9 -1541 l0 -1535 22 15 c18 12 22 23 20 51 -2 20
2 36 8 36 5 0 10 -6 10 -14 0 -7 14 -16 32 -20 30 -6 31 -7 12 -20 -10 -8 -16
-18 -12 -22 4 -4 14 -1 23 6 12 10 18 10 30 0 22 -18 18 -32 -6 -25 -16 6 -20
4 -14 -6 19 -33 28 -39 40 -29 15 12 40 -13 30 -30 -13 -20 17 -40 59 -40 23
0 48 -6 55 -13 10 -10 11 -9 6 6 -8 20 5 23 23 5 25 -25 13 -38 -33 -36 -25 1
-45 6 -45 11 0 11 -50 -35 -50 -45 0 -14 27 -9 40 7 14 16 50 21 50 6 0 -5
-10 -13 -22 -17 -38 -11 -50 -25 -37 -40 8 -10 9 -18 0 -27 -6 -8 -8 -17 -4
-20 3 -4 1 -7 -5 -7 -12 0 -16 13 -13 38 1 8 -7 16 -19 19 -17 5 -20 11 -15
31 4 15 15 32 27 40 14 10 16 18 9 25 -7 7 -15 6 -25 -3 -9 -7 -23 -9 -32 -6
-13 5 -14 9 -4 21 9 10 9 15 1 15 -6 0 -11 -4 -11 -10 0 -5 -5 -10 -11 -10 -7
0 -9 10 -5 26 5 18 3 24 -5 19 -6 -4 -15 -1 -20 6 -7 11 -9 11 -9 -2 0 -9 -7
-20 -17 -23 -14 -6 -14 -8 3 -20 18 -14 18 -15 -8 -26 -15 -7 -31 -26 -37 -41
-11 -33 -36 -41 -26 -9 4 12 2 20 -4 20 -8 0 -11 -65 -11 -205 l1 -205 179 0
c167 0 179 1 173 17 -7 17 -6 17 20 0 37 -24 83 -23 90 3 3 11 13 20 22 20 12
0 15 -5 10 -20 -5 -17 -2 -20 25 -20 18 0 29 4 25 10 -3 5 1 10 9 10 9 0 16
-4 16 -10 0 -13 91 -13 110 1 11 8 12 12 3 16 -18 7 -16 30 3 37 25 10 27 8
21 -29 l-6 -35 140 0 c91 0 138 4 134 10 -3 6 6 15 20 20 35 13 42 13 27 -2
-7 -7 -12 -16 -12 -20 0 -12 134 -6 142 6 5 8 8 7 8 -1 0 -10 33 -13 130 -13
107 0 128 2 124 14 -3 8 0 17 6 21 6 4 8 16 4 27 -5 18 -3 20 15 15 13 -3 30
2 44 14 16 14 17 17 5 13 -21 -7 -24 6 -6 25 11 11 11 14 1 18 -18 6 -16 23 2
23 8 0 15 5 15 10 0 26 -40 1 -53 -32 -3 -10 -12 -18 -18 -18 -7 0 -20 -7 -30
-16 -16 -14 -17 -13 -15 10 0 15 7 26 15 26 12 0 12 3 3 12 -10 10 -17 10 -32
0 -25 -15 -26 -5 -2 21 16 18 16 19 -3 17 -35 -4 -55 0 -55 10 0 6 12 10 26
10 14 0 23 4 20 9 -9 14 -56 0 -56 -18 -1 -12 -3 -11 -13 5 -7 12 -17 19 -24
17 -6 -2 -13 8 -16 24 l-4 28 -2 -28 c-1 -22 -5 -27 -23 -26 -43 4 -57 -1 -63
-21 -8 -26 -24 -25 -34 2 -5 14 -10 17 -15 10 -4 -7 -19 -9 -36 -5 -17 3 -30
2 -30 -3 0 -5 -9 -15 -20 -22 -18 -11 -20 -10 -20 8 0 12 7 20 18 21 14 0 14
2 -3 8 -19 8 -51 -6 -40 -17 7 -7 -27 -31 -44 -32 -7 0 -2 9 13 21 14 11 26
27 26 35 0 8 5 14 10 14 6 0 10 16 10 35 0 19 -5 35 -11 35 -6 0 -8 -9 -4 -20
4 -12 2 -20 -5 -20 -6 0 -8 -5 -4 -11 11 -19 -47 -61 -74 -54 -19 5 -23 3 -19
-9 4 -10 1 -13 -8 -9 -22 8 0 44 23 36 11 -3 9 0 -6 11 -13 10 -22 28 -22 43
0 26 0 27 -18 7 -22 -23 -34 -62 -21 -70 14 -8 10 -24 -6 -24 -8 0 -15 6 -15
14 0 8 -7 17 -15 20 -9 3 -15 11 -14 18 4 30 -4 40 -10 13 -5 -25 -11 -30 -36
-31 -17 -1 -50 -5 -75 -9 -41 -8 -44 -7 -31 8 7 9 17 14 22 11 12 -7 11 33 -1
57 -8 13 -7 19 0 19 6 0 8 5 5 10 -4 6 -1 17 5 25 13 16 6 65 -9 65 -16 0 -21
-31 -6 -36 8 -4 12 -10 9 -15 -3 -5 -9 -7 -14 -4 -5 3 -11 1 -15 -4 -3 -6 -12
-8 -20 -5 -32 13 -34 -9 -3 -26 41 -21 49 -59 19 -89 -12 -12 -20 -31 -18 -43
3 -31 -29 -35 -52 -6 -14 16 -16 25 -8 30 7 4 -2 13 -22 21 -20 9 -29 17 -22
21 6 4 16 4 21 1 6 -3 10 -1 10 6 0 6 8 9 20 6 11 -3 23 -1 26 4 3 5 10 6 16
3 7 -4 8 -2 4 4 -4 7 -14 12 -22 12 -8 0 -23 9 -34 20 -18 18 -22 19 -35 6
-10 -9 -11 -17 -5 -21 15 -10 12 -25 -6 -25 -12 0 -15 -9 -12 -40 2 -23 -1
-39 -7 -37 -5 1 -9 7 -7 14 4 18 -15 16 -22 -2 -11 -29 14 -60 29 -35 9 15 25
12 25 -5 0 -9 7 -18 16 -22 12 -4 13 -8 3 -13 -9 -6 -7 -15 9 -35 11 -14 24
-25 29 -25 15 3 14 -20 -1 -26 -9 -3 -16 -12 -16 -20 0 -8 -5 -14 -11 -14 -6
0 -8 9 -4 21 9 26 -13 79 -32 79 -10 0 -12 6 -8 20 7 23 -2 26 -24 6 -9 -8
-25 -16 -36 -18 -17 -2 -20 3 -20 30 -1 19 3 36 7 38 4 3 8 12 8 20 0 8 -5 12
-10 9 -7 -4 -8 3 -4 20 4 18 2 30 -7 36 -12 8 -11 12 3 23 13 9 14 16 6 24 -8
8 -6 15 6 27 9 9 16 23 16 31 0 8 7 14 15 14 11 0 14 -7 9 -25 -3 -14 -2 -25
3 -25 6 0 9 14 8 30 -1 21 4 34 16 40 25 14 29 12 23 -7 -3 -10 2 -5 11 10 13
23 14 31 4 43 -17 21 17 44 54 37 37 -7 35 11 -4 27 -36 15 -64 53 -53 72 5 9
2 8 -10 -2 -11 -8 -14 -16 -7 -18 15 -5 14 -29 -2 -36 -6 -4 -2 -4 11 -2 14 3
22 -1 22 -11 0 -8 -5 -11 -10 -8 -5 3 -10 1 -10 -4 0 -6 -7 -11 -15 -11 -18 0
-20 -36 -2 -43 20 -7 3 -17 -21 -10 -12 3 -22 13 -22 22 -1 13 -3 12 -12 -4
-6 -11 -11 -21 -12 -21 -1 -1 -11 -5 -23 -8 -19 -6 -25 -2 -33 18 -5 14 -15
26 -22 26 -6 0 -3 6 8 14 17 13 20 12 26 -5 9 -23 28 -25 28 -4 0 8 -4 15 -10
15 -5 0 -10 7 -10 15 0 8 -4 15 -9 15 -5 0 -7 18 -4 41 4 28 2 44 -7 49 -17
10 -4 30 21 30 25 0 24 16 -2 23 -12 3 -22 0 -26 -9 -3 -8 -15 -14 -27 -14
-13 0 -26 -10 -33 -27 -17 -36 -16 -48 2 -33 12 10 15 9 15 -5 0 -9 5 -15 12
-13 21 7 19 25 -3 31 -18 5 -19 8 -8 20 21 23 35 3 38 -53 2 -49 1 -50 -26
-51 -15 0 -22 -3 -16 -6 10 -3 10 -10 2 -25 -9 -18 -24 -18 -24 0 0 4 -4 12
-8 18 -4 7 0 15 10 18 14 6 13 9 -7 31 -12 13 -19 28 -15 34 14 23 -14 10 -29
-14 -19 -29 -30 -31 -48 -9 -7 9 -26 30 -41 46 -19 21 -26 36 -22 50 4 10 2
25 -4 32 -8 10 -8 16 3 25 10 8 16 9 21 1 4 -6 17 1 35 20 15 16 34 30 42 30
9 -1 8 -5 -4 -14 -10 -7 -18 -21 -18 -30 0 -9 -4 -16 -9 -16 -11 0 -31 -54
-31 -83 0 -20 1 -20 20 -2 16 14 18 21 8 28 -10 6 -9 8 3 4 16 -5 40 16 52 46
10 25 46 21 58 -7 7 -15 17 -22 26 -19 11 5 12 7 2 14 -10 6 -10 11 0 23 17
20 31 20 31 0 0 -10 7 -14 23 -13 12 2 28 0 34 -4 9 -6 11 -3 6 8 -4 13 -1 16
17 13 33 -4 35 -20 6 -50 -17 -19 -21 -29 -13 -37 26 -26 51 -2 40 38 -3 12
-1 21 6 21 6 0 11 7 11 15 0 9 7 18 16 22 9 3 14 13 11 24 -5 18 9 37 19 27 2
-3 6 -28 9 -56 4 -41 2 -52 -9 -52 -8 0 -17 5 -19 10 -3 6 -4 5 -3 -2 2 -7 -1
-21 -6 -30 -5 -12 -5 -18 2 -18 5 0 10 5 10 10 0 6 5 10 11 10 7 0 9 -9 6 -21
-3 -13 -1 -19 6 -16 7 3 11 10 10 16 -4 15 2 14 37 -4 48 -25 94 -27 108 -4
14 22 12 22 -22 9 -14 -5 -35 -6 -47 -2 -20 8 -21 9 -4 26 15 15 16 19 4 27
-12 8 -12 10 1 19 8 5 21 8 28 5 6 -2 12 0 12 5 0 6 5 10 11 10 5 0 9 -10 7
-23 -2 -14 2 -22 12 -22 8 0 21 -8 28 -18 12 -15 15 -16 28 -2 9 8 20 12 26 9
7 -4 4 -10 -6 -16 -21 -12 -20 -28 2 -28 10 0 23 -5 30 -12 9 -9 12 -9 12 3 0
8 -5 20 -12 27 -9 9 -9 12 0 12 7 0 12 -4 12 -10 0 -5 12 -10 26 -10 22 0 25
3 20 23 -3 12 -6 25 -6 28 0 3 -13 4 -29 1 -20 -3 -30 1 -35 14 -3 9 -3 20 0
23 4 3 9 0 11 -6 7 -20 19 -15 31 12 9 20 8 27 -6 42 -15 15 -15 16 -1 11 9
-4 21 -2 27 4 6 6 12 6 16 -1 4 -6 2 -11 -3 -11 -19 0 -12 -38 8 -45 11 -3 22
-19 26 -35 4 -17 11 -33 17 -37 7 -4 9 0 5 10 -3 8 1 21 8 27 10 8 13 21 9 37
-6 24 -5 24 32 17 42 -7 57 -14 31 -14 -10 0 -14 -5 -11 -14 3 -9 -3 -20 -15
-28 -19 -12 -29 -38 -15 -38 16 0 44 23 44 35 0 24 40 59 53 46 8 -8 7 -11 -4
-11 -10 0 -14 -13 -15 -50 0 -31 4 -49 10 -47 6 2 10 14 9 26 -2 12 3 21 11
21 9 0 12 9 8 27 -4 22 -2 26 8 16 7 -6 13 -25 14 -41 1 -28 2 -28 22 -13 22
17 21 46 -1 37 -8 -3 -16 2 -19 10 -9 23 -8 24 22 24 22 0 28 -5 30 -23 3 -40
-18 -87 -39 -87 -16 0 -19 -5 -14 -20 7 -21 -9 -50 -27 -50 -6 0 -4 7 3 16 11
14 10 18 -6 30 -25 18 -45 18 -45 -1 0 -8 4 -15 9 -15 5 0 14 -13 21 -30 l12
-30 20 25 c11 14 28 25 39 25 11 0 18 4 15 9 -8 12 23 71 36 71 6 0 8 -10 5
-22 -6 -23 -6 -23 9 -3 9 13 11 21 4 23 -6 2 1 15 15 27 28 27 34 50 9 41 -10
-4 -14 -1 -12 6 3 7 15 15 27 16 15 2 21 0 17 -7 -4 -7 -1 -8 8 -5 9 3 16 10
16 15 0 5 5 9 11 9 6 0 8 -9 4 -21 -7 -20 -6 -20 20 -3 14 9 24 23 21 30 -3 8
1 14 8 14 12 0 12 -7 1 -42 -10 -35 -17 -43 -36 -43 -16 0 -25 -7 -27 -20 -5
-26 -22 -46 -33 -39 -5 3 -9 -1 -9 -8 0 -7 11 -18 24 -24 20 -9 26 -9 30 2 3
9 -1 14 -12 15 -13 0 -12 3 6 11 16 8 21 17 17 32 -3 12 -2 15 1 9 4 -9 11
-10 25 -3 16 9 19 7 19 -15 0 -29 23 -43 44 -26 7 6 16 7 20 3 4 -4 6 -2 4 3
-2 6 1 12 7 15 5 3 12 -8 16 -25 l6 -30 7 28 c8 28 26 37 26 14 0 -16 95 -23
105 -8 3 6 -4 20 -15 31 -12 12 -19 25 -15 28 3 4 10 0 15 -8 7 -12 11 -10 19
10 9 22 10 23 12 5 1 -11 1 -26 -1 -34 -1 -7 8 -20 19 -27 13 -9 18 -21 14
-32 -4 -11 -3 -14 4 -7 6 6 13 25 16 43 5 24 3 32 -8 32 -22 0 -18 17 5 23 15
4 22 -1 26 -19 3 -13 1 -30 -5 -38 -6 -7 -8 -16 -4 -19 3 -4 0 -13 -6 -21 -10
-12 -8 -15 11 -18 15 -2 24 -11 26 -25 5 -38 20 -26 17 13 -4 43 2 64 21 64
11 0 11 -5 3 -24 -9 -20 -8 -27 10 -45 18 -18 22 -18 35 -6 8 8 22 15 30 15
13 0 15 -6 10 -27 -4 -16 -11 -36 -16 -46 -8 -15 -6 -18 9 -15 10 2 18 12 18
25 0 12 7 33 15 47 11 21 21 26 51 26 31 0 38 4 43 26 5 19 11 24 26 19 15 -5
17 -2 13 15 -4 14 -1 20 11 20 10 0 16 9 16 24 0 14 5 28 10 31 6 4 8 11 4 16
-3 6 5 7 21 3 18 -4 30 -2 36 7 7 12 9 12 9 0 0 -7 6 -11 15 -7 9 3 15 0 15
-10 0 -13 -7 -15 -35 -10 -32 6 -36 4 -46 -21 -10 -26 -5 -72 9 -83 4 -3 12
-14 18 -25 16 -28 59 -27 59 2 0 12 13 31 28 43 30 24 35 40 12 40 -8 0 -15
-6 -15 -14 0 -8 -5 -18 -11 -22 -24 -14 4 42 31 63 25 20 27 26 17 48 -7 14
-15 25 -19 25 -5 0 -8 5 -8 10 0 15 19 12 48 -9 23 -16 29 -17 40 -5 11 12 9
14 -13 14 -18 0 -29 8 -37 25 -13 28 -6 39 30 50 16 5 22 2 22 -9 0 -9 -5 -16
-10 -16 -7 0 -7 -6 0 -20 6 -11 17 -20 25 -20 20 0 20 -54 0 -70 -12 -10 -18
-10 -30 0 -20 16 -32 5 -14 -12 16 -15 109 -19 109 -6 0 5 3 7 8 5 12 -8 31
19 22 33 -6 9 -13 7 -29 -9 -22 -22 -51 -28 -51 -11 0 6 11 15 25 20 25 9 29
18 26 53 -2 11 5 17 18 17 21 0 37 -17 26 -28 -3 -3 -10 0 -14 7 -5 8 -11 9
-15 3 -7 -12 20 -36 33 -28 15 10 25 -15 10 -26 -10 -6 -6 -7 11 -2 14 4 27
11 28 15 6 14 29 10 36 -6 3 -10 -1 -15 -12 -15 -19 -1 -52 -23 -52 -35 0 -4
7 -5 15 -1 13 5 14 2 5 -15 -10 -17 -9 -20 6 -17 14 2 18 -5 20 -37 1 -22 -3
-48 -7 -57 -6 -10 -5 -19 1 -23 5 -3 10 -17 10 -31 0 -28 6 -30 26 -9 9 8 24
15 35 15 16 0 19 7 19 53 1 48 2 51 16 32 8 -11 12 -26 8 -35 -3 -8 -8 -32
-11 -53 -5 -31 -8 -35 -20 -25 -13 10 -19 8 -34 -11 -20 -25 -26 -71 -9 -71
14 0 13 -27 -1 -36 -6 -3 -14 -1 -18 5 -5 8 -13 7 -27 -4 -25 -19 -61 -21 -46
-2 7 8 7 18 2 27 -8 13 -10 12 -10 -3 0 -10 -7 -20 -15 -23 -8 -4 -15 -15 -15
-25 0 -11 -7 -22 -15 -25 -8 -4 -15 -12 -15 -19 0 -16 33 -30 38 -15 7 21 34
40 56 40 25 0 50 -22 39 -33 -12 -13 -25 -7 -19 8 3 8 1 15 -4 15 -6 0 -10 -4
-10 -10 0 -5 -6 -10 -13 -10 -30 0 -35 -21 -10 -46 24 -25 43 -24 43 1 0 17
31 28 43 16 7 -7 2 -23 -16 -48 -26 -36 -26 -38 -7 -45 11 -4 20 -12 20 -18 0
-5 5 -10 10 -10 6 0 10 6 10 13 0 6 10 32 22 56 17 32 20 45 11 48 -7 3 -13 9
-13 15 0 6 6 6 15 -2 8 -7 15 -19 15 -26 0 -18 14 -18 30 1 16 20 40 19 40 0
0 -10 -7 -15 -17 -13 -10 2 -17 -3 -16 -9 2 -8 -6 -12 -18 -10 -12 1 -24 -4
-26 -10 -6 -18 18 -16 45 3 20 14 22 14 22 0 0 -9 5 -16 10 -16 6 0 10 -4 10
-10 0 -5 -7 -10 -16 -10 -10 0 -14 -5 -10 -15 3 -8 9 -22 12 -30 4 -10 0 -15
-14 -15 -11 0 -22 -7 -26 -15 -3 -8 -10 -15 -16 -15 -16 0 -12 27 5 34 8 3 15
12 15 20 0 13 -4 13 -30 -2 -17 -9 -28 -22 -26 -28 2 -6 -5 -16 -15 -22 -10
-7 -19 -19 -19 -27 0 -9 -13 -23 -30 -34 -37 -22 -29 -31 27 -31 30 0 43 4 42
13 -2 13 18 67 25 67 3 0 4 -18 3 -40 l-3 -40 88 0 c87 0 99 5 76 28 -9 9 -9
15 1 24 10 11 11 10 5 -5 -5 -13 -2 -16 11 -11 12 5 16 2 13 -12 -3 -17 5 -19
83 -21 l85 -2 0 34 c0 19 -4 31 -8 29 -4 -3 -8 -12 -8 -20 0 -8 -5 -14 -11
-14 -20 0 -5 55 16 58 41 6 49 12 37 24 -20 20 -14 52 13 65 21 9 25 9 25 -4
0 -8 -4 -12 -9 -9 -5 3 -11 -1 -15 -9 -5 -13 5 -20 27 -16 13 2 8 -11 -17 -44
-14 -18 -26 -45 -28 -61 -3 -25 1 -29 25 -32 16 -2 35 2 43 9 11 9 14 9 14 -2
1 -10 4 -8 11 4 12 21 33 23 25 2 -4 -10 1 -15 16 -15 20 0 20 1 5 18 -10 10
-17 26 -17 35 0 9 -7 17 -15 17 -8 0 -15 5 -15 10 0 6 7 10 15 10 8 0 15 8 15
18 0 14 -2 15 -10 2 -7 -10 -10 -11 -10 -2 0 7 7 15 15 18 19 8 20 24 1 24 -8
0 -17 7 -20 16 -9 22 -8 24 10 24 8 0 12 -4 9 -10 -3 -5 1 -10 11 -10 12 0 15
-6 11 -26 -3 -16 0 -28 9 -31 24 -9 54 -67 48 -94 -5 -19 -3 -21 5 -9 10 13
12 13 21 0 8 -12 48 -16 232 -18 l223 -4 11 41 c6 23 8 44 4 46 -5 3 -7 23 -7
46 2 38 5 42 41 54 22 8 44 11 49 8 6 -4 8 3 5 15 -4 12 -3 22 2 22 14 0 29
-25 41 -73 6 -27 27 -66 45 -89 19 -22 34 -46 34 -54 0 -12 44 -14 268 -14
255 0 266 1 246 18 -12 9 -41 45 -64 79 -23 35 -46 66 -52 69 -5 3 -29 37 -54
75 -24 38 -48 69 -52 69 -5 0 -15 12 -23 27 -17 35 -68 104 -89 120 -18 14
-35 10 -117 -28 -33 -16 -68 -26 -77 -23 -8 3 -30 -2 -48 -11 -18 -9 -54 -19
-80 -22 -34 -4 -48 -11 -51 -24 -3 -12 -14 -19 -31 -19 -14 0 -49 -10 -78 -23
-29 -13 -65 -27 -79 -30 -14 -4 -38 -18 -55 -32 -16 -14 -35 -25 -42 -25 -7 0
-33 -14 -57 -30 -24 -17 -49 -30 -56 -30 -7 0 -27 -14 -45 -31 l-32 -31 -61
121 c-34 66 -61 124 -61 129 0 5 19 14 43 20 23 5 62 15 87 22 25 6 72 17 105
24 74 17 115 33 115 45 0 13 49 35 137 61 51 15 80 30 97 50 13 16 61 47 107
70 46 23 93 53 104 66 27 33 118 67 183 70 82 3 79 14 -9 28 -21 4 -53 17 -72
30 -20 14 -40 20 -48 16 -8 -4 -56 -10 -106 -12 -51 -3 -99 -11 -106 -17 -8
-6 -47 -22 -88 -35 -106 -34 -162 -61 -176 -83 -6 -11 -50 -39 -97 -63 -48
-23 -101 -57 -120 -76 -21 -21 -44 -34 -60 -34 -15 0 -34 -4 -44 -9 -9 -5 -36
-15 -60 -22 -24 -7 -47 -19 -51 -28 -7 -11 -24 16 -66 100 -32 63 -122 240
-200 394 -213 420 -485 955 -750 1480 -131 259 -288 569 -350 690 -107 210
-257 504 -677 1335 -105 206 -221 434 -258 505 -37 72 -197 387 -355 700 -159
314 -299 590 -312 614 l-23 44 0 -90z m1190 -2438 c79 -154 184 -361 234 -460
50 -98 94 -184 99 -190 4 -5 43 -80 86 -165 43 -85 106 -208 140 -274 33 -65
61 -120 61 -121 0 -6 -37 -17 -72 -20 -83 -9 -294 -139 -283 -175 20 -68 15
-86 -13 -58 -9 9 -12 8 -13 -8 -2 -48 -10 -119 -14 -123 -3 -2 -22 3 -42 12
-21 8 -50 18 -64 21 -28 6 -48 44 -64 115 -12 55 -70 152 -120 200 -47 46 -55
61 -30 61 15 0 82 85 103 133 6 15 18 39 25 54 7 16 12 68 12 132 0 92 -3 111
-23 144 -22 38 -37 133 -46 292 -11 193 -48 280 -142 329 -88 45 -121 65 -133
80 -10 11 -33 16 -80 17 -36 1 -79 5 -96 9 l-30 7 30 7 c38 8 179 81 213 110
55 47 81 82 92 124 6 25 15 41 19 36 5 -5 73 -135 151 -289z m780 -2295 c19
-19 19 -19 33 0 17 24 30 15 16 -11 -5 -11 -7 -19 -3 -19 3 0 1 -7 -7 -16 -11
-14 -13 -14 -21 1 -5 8 -13 13 -19 10 -12 -8 15 -35 35 -35 21 0 21 -16 0 -24
-22 -8 -6 -28 17 -21 14 5 17 3 13 -9 -3 -9 -11 -16 -17 -16 -8 0 -7 -4 1 -12
9 -9 16 -7 32 7 14 12 17 22 10 29 -6 6 -6 14 2 24 9 10 8 16 -3 23 -18 11 -1
11 26 -1 11 -5 14 -9 8 -9 -20 -1 -15 -21 5 -21 25 0 42 20 42 48 0 21 2 23
15 12 13 -11 12 -17 -9 -45 -14 -18 -28 -44 -32 -59 -7 -30 -4 -28 -63 -30
-50 -2 -63 -19 -35 -42 11 -9 13 -13 6 -9 -7 4 -19 1 -27 -5 -12 -10 -15 -10
-15 0 0 9 -6 8 -19 -4 -11 -10 -25 -15 -31 -11 -8 5 -5 12 9 22 12 8 21 25 21
39 0 18 5 24 21 24 12 0 19 5 16 13 -5 17 -58 16 -79 -2 -21 -17 -23 -37 -5
-44 13 -5 -24 -47 -42 -47 -5 0 -7 -9 -4 -20 3 -12 0 -20 -6 -20 -7 0 -10 -4
-7 -9 3 -5 -2 -12 -11 -16 -16 -5 -15 -8 7 -25 20 -15 23 -21 13 -31 -19 -19
-16 -39 6 -39 23 0 32 19 19 43 -5 10 -7 26 -5 35 3 13 7 10 15 -11 10 -22 16
-27 33 -22 18 6 19 4 10 -13 -26 -50 -106 -65 -113 -21 -2 11 -7 16 -15 11
-15 -9 -35 -126 -22 -130 5 -2 9 -8 9 -14 0 -6 -7 -8 -15 -5 -8 4 -27 -7 -45
-25 -30 -29 -32 -43 -7 -43 19 0 15 -54 -5 -75 -10 -10 -18 -24 -18 -30 0 -13
-17 -13 -25 0 -3 6 -1 10 4 10 6 0 11 7 11 15 0 16 -18 20 -36 7 -13 -8 0 -52
15 -52 5 0 13 -9 16 -20 7 -22 35 -28 35 -7 1 7 7 4 15 -7 12 -15 17 -17 29
-7 8 7 20 10 26 6 6 -4 20 1 31 11 10 9 21 15 24 12 5 -4 -1 -11 -52 -57 -15
-13 -20 -27 -16 -38 6 -17 5 -17 -13 0 -19 18 -18 18 5 36 l25 19 -35 -3 c-25
-2 -34 -7 -34 -21 0 -13 -8 -19 -23 -20 -20 -1 -23 2 -18 22 7 26 -3 31 -22
12 -19 -19 -27 0 -8 21 18 19 14 47 -5 36 -5 -4 -12 7 -15 24 -7 35 -33 42
-41 11 -3 -11 -9 -20 -14 -20 -4 0 -18 -10 -30 -22 -21 -22 -22 -22 -17 -2 4
17 1 20 -23 16 -33 -5 -37 -18 -11 -39 12 -10 13 -13 2 -10 -8 2 -23 -2 -33
-11 -9 -8 -20 -12 -25 -7 -4 4 -1 10 6 12 6 3 9 9 6 14 -3 6 -12 2 -20 -8 -12
-17 -13 -16 -14 10 0 20 -5 27 -20 27 -11 0 -20 4 -20 9 0 6 18 9 40 9 45 0
62 8 41 22 -11 6 -6 12 17 24 42 22 52 20 23 -4 -20 -17 -21 -21 -7 -26 24 -9
48 15 42 42 -5 17 0 26 15 34 11 7 23 9 27 6 3 -3 0 -6 -6 -6 -7 0 -12 -4 -12
-10 0 -15 26 -12 39 4 9 11 9 15 0 18 -7 2 -9 10 -5 16 11 18 24 15 31 -8 8
-26 25 -26 25 0 0 11 8 36 18 55 14 26 22 31 30 23 9 -9 12 -6 12 14 0 35 9
58 24 58 6 0 17 12 24 28 26 56 37 72 51 72 10 0 11 3 3 13 -8 9 -5 19 8 37
11 14 20 33 20 42 0 27 11 48 22 42 16 -10 27 17 15 36 -8 14 -5 23 16 43 28
25 35 47 16 47 -6 0 -13 -9 -16 -20 -3 -11 -9 -20 -14 -20 -15 0 3 34 33 61
24 22 27 30 19 52 -5 14 -16 27 -23 30 -7 3 -3 6 10 6 12 1 31 -8 42 -19z
m102 -575 c-2 -14 -9 -25 -15 -25 -18 0 26 -26 56 -34 26 -6 38 -26 15 -26 -6
0 -4 -7 5 -18 10 -10 17 -22 17 -25 0 -12 -48 -7 -53 6 -3 7 -6 5 -6 -5 -1
-10 -5 -18 -11 -18 -14 0 -12 12 5 37 13 18 12 22 -5 38 -25 23 -28 20 -39
-39 -5 -26 -14 -53 -21 -59 -10 -9 -11 -7 -6 13 7 24 6 24 -8 6 -9 -11 -16
-23 -16 -28 0 -14 -31 -9 -47 7 -18 19 -31 11 -15 -8 13 -15 6 -27 -15 -27
-11 0 -14 11 -10 49 5 54 12 71 31 71 8 0 11 -11 8 -34 -4 -38 18 -55 40 -28
9 11 10 14 1 8 -16 -9 -16 5 -1 39 9 21 9 28 -1 35 -8 4 -10 13 -7 19 11 16
26 13 20 -4 -4 -8 -1 -15 5 -15 7 0 10 -10 9 -22 -2 -13 2 -25 7 -28 14 -7 19
50 6 63 -7 7 -7 16 0 30 8 13 8 22 1 29 -7 7 -7 16 1 28 9 16 13 16 32 4 16
-10 21 -21 17 -39z m838 -454 c0 -9 7 -29 15 -45 9 -16 15 -37 14 -45 -3 -32
2 -41 21 -41 11 0 20 -4 20 -10 0 -5 -4 -10 -9 -10 -14 0 -23 -33 -11 -40 6
-4 5 -13 -4 -25 -12 -17 -14 -15 -20 19 -4 20 -11 34 -17 31 -5 -4 -9 -1 -9 4
0 6 5 11 10 11 6 0 10 5 10 12 0 9 -3 9 -12 0 -18 -18 -28 -15 -28 8 0 12 7
20 17 20 31 0 4 13 -32 15 -28 2 -35 -2 -35 -17 0 -10 6 -18 13 -19 9 0 9 -2
-1 -6 -6 -2 -10 -8 -7 -13 3 -4 -4 -10 -15 -13 -22 -6 -27 12 -8 31 9 9 9 12
0 12 -7 0 -12 -4 -12 -9 0 -5 -9 -11 -20 -14 -27 -7 -25 8 5 31 29 23 32 32
10 32 -8 0 -15 -7 -15 -15 0 -8 -4 -15 -10 -15 -5 0 -10 7 -10 15 0 8 5 15 10
15 6 0 10 7 10 15 0 8 8 16 18 16 16 1 16 2 0 6 -30 8 -21 30 10 26 19 -3 33
3 47 20 22 26 45 25 45 -2z"/>
<path d="M16105 5891 c-2 -1 -145 -2 -318 -2 -218 1 -317 -1 -322 -9 -10 -16
-8 -381 2 -391 14 -14 7685 -12 7694 2 4 7 5 98 3 203 l-4 191 -3467 2 c-1908
1 -3494 4 -3526 5 -32 2 -60 1 -62 -1z m4503 -99 c3 -27 7 -32 29 -32 69 0
101 -103 49 -155 -20 -20 -33 -24 -66 -22 -23 2 -45 9 -50 17 -15 23 -12 204
2 218 19 19 33 9 36 -26z m-440 -30 c3 -54 11 -63 32 -37 7 8 21 15 31 15 20
0 26 -15 9 -25 -27 -17 -29 -42 -4 -79 14 -20 22 -41 19 -46 -12 -19 -45 -10
-57 15 -14 30 -28 33 -28 5 0 -21 -25 -38 -37 -26 -11 11 -10 210 0 224 18 24
32 6 35 -46z m961 40 c5 -10 8 -37 5 -60 -5 -45 4 -54 24 -22 13 22 52 28 52
8 0 -6 -9 -21 -20 -32 -19 -21 -19 -22 1 -54 21 -32 39 -42 39 -21 0 6 10 9
23 7 14 -2 22 -10 22 -23 0 -17 -7 -20 -48 -21 -40 -1 -51 2 -64 22 -19 30
-31 30 -35 2 -2 -13 -11 -24 -20 -26 -16 -3 -18 7 -18 111 0 62 3 117 7 120
11 12 22 8 32 -11z m-5355 -13 c29 -23 35 -69 11 -89 -21 -17 -19 -36 7 -70
16 -22 19 -33 11 -41 -17 -17 -41 -4 -64 36 -27 45 -37 44 -41 -2 -2 -30 -7
-38 -23 -38 -19 0 -20 8 -23 113 l-3 112 49 0 c35 0 57 -6 76 -21z m1188 4
c22 -20 23 -41 1 -65 -16 -18 -16 -20 4 -40 l21 -21 16 32 c9 17 21 31 27 31
16 0 23 -31 11 -51 -16 -26 -15 -49 3 -55 17 -7 20 -30 6 -39 -5 -3 -21 0 -35
6 -20 10 -35 9 -66 -1 -34 -11 -44 -11 -66 1 -42 22 -52 54 -26 89 16 21 20
37 16 60 -12 56 46 91 88 53z m-1019 -45 c23 -17 38 -73 24 -87 -6 -6 -28 -11
-50 -11 -51 0 -45 -25 7 -26 46 -1 57 -12 32 -30 -70 -50 -162 37 -122 115 26
48 73 65 109 39z m195 3 c1 -1 2 -41 2 -90 0 -75 -3 -92 -21 -115 -18 -23 -28
-27 -63 -24 -31 2 -42 8 -44 22 -3 16 1 18 24 13 34 -6 54 1 54 19 0 10 -7 13
-24 8 -19 -4 -32 1 -52 21 -23 23 -26 32 -21 73 7 63 34 85 96 78 25 -2 47 -5
49 -5z m486 -10 c11 -12 16 -31 14 -53 -3 -31 -6 -33 -45 -38 -33 -4 -41 -8
-34 -19 5 -8 19 -12 34 -9 38 7 57 -9 33 -27 -64 -49 -152 22 -126 101 20 60
88 85 124 45z m639 1 c22 -26 29 -70 17 -106 -11 -35 -49 -62 -74 -53 -11 4
-16 -2 -18 -26 -2 -24 -8 -33 -25 -35 -23 -3 -23 -2 -23 111 0 62 2 116 4 118
2 2 27 5 54 6 36 2 54 -2 65 -15z m187 -52 c3 -36 8 -70 12 -75 12 -19 -8 -38
-28 -27 -12 7 -25 6 -41 -1 -33 -15 -71 8 -82 49 -11 41 -5 72 22 102 17 18
29 21 66 19 l46 -3 5 -64z m75 40 c8 -16 15 -36 15 -45 0 -29 16 -15 30 28 11
30 20 42 35 42 12 0 19 -6 19 -15 -4 -31 -63 -183 -80 -201 -16 -18 -64 -26
-77 -13 -11 11 5 34 24 34 32 0 33 28 6 107 -15 41 -24 79 -21 84 11 18 34 8
49 -21z m322 15 c44 -31 36 -131 -13 -154 -35 -16 -47 -14 -78 10 -21 17 -26
29 -26 65 0 75 62 117 117 79z m188 -9 c11 -17 15 -43 13 -88 -3 -55 -5 -63
-23 -63 -18 0 -20 8 -23 63 -2 44 -7 65 -18 69 -28 11 -44 -17 -44 -79 0 -51
-2 -59 -17 -56 -15 3 -19 16 -21 77 -2 41 -1 79 2 86 2 6 28 12 60 13 49 1 58
-2 71 -22z m329 11 c11 -8 17 -33 21 -77 5 -70 -4 -96 -29 -87 -12 5 -16 21
-16 66 0 63 -8 76 -40 66 -16 -5 -20 -17 -22 -68 -2 -49 -6 -62 -20 -65 -16
-3 -18 6 -18 81 0 46 2 86 4 88 10 10 105 7 120 -4z m168 -4 c21 -25 29 -64
16 -80 -6 -7 -28 -13 -50 -13 -54 0 -45 -24 10 -28 44 -3 50 -10 30 -30 -19
-19 -73 -14 -102 9 -36 29 -37 99 -1 134 29 29 75 33 97 8z m263 2 c2 -5 5
-42 8 -81 l4 -72 -49 -5 c-60 -7 -85 6 -97 50 -11 40 -4 71 22 100 16 18 30
22 65 20 24 -1 46 -6 47 -12z m269 3 c3 -7 7 -26 10 -41 8 -35 22 -27 30 18 5
26 12 35 27 35 20 0 23 -4 33 -52 4 -16 11 -28 16 -28 6 0 10 12 10 28 0 43
13 54 56 50 36 -3 39 -6 44 -36 7 -43 23 -42 33 2 7 26 14 36 28 36 20 0 23
-4 33 -52 4 -16 11 -28 16 -28 6 0 10 12 10 28 0 41 11 50 60 50 49 1 60 -9
60 -50 0 -40 17 -34 27 10 6 27 15 38 30 40 18 3 22 -3 28 -37 8 -51 20 -52
32 -3 6 27 14 38 31 40 12 2 22 -2 22 -8 0 -30 -45 -163 -57 -167 -19 -8 -40
13 -47 48 -7 34 -26 30 -26 -5 0 -27 -24 -51 -44 -43 -7 3 -19 29 -26 59 -27
111 -30 112 -59 23 -29 -89 -53 -108 -71 -58 -22 58 -23 59 -33 20 -18 -73
-56 -59 -77 29 -12 50 -15 54 -27 38 -7 -10 -13 -26 -13 -36 0 -49 -52 -101
-65 -65 -2 6 -10 26 -16 42 l-12 30 -10 -38 c-10 -42 -32 -57 -51 -36 -13 14
-46 125 -46 154 0 18 39 20 44 3z m1335 -12 c15 -16 21 -33 19 -52 -3 -26 -7
-29 -46 -32 -49 -4 -54 -25 -6 -30 52 -5 62 -12 40 -28 -33 -23 -74 -17 -108
16 -26 27 -30 36 -25 67 13 75 81 107 126 59z m468 2 c11 -13 23 -30 25 -38 3
-11 8 -8 18 10 19 35 40 49 76 50 72 0 107 -108 50 -157 -15 -13 -37 -23 -49
-23 -31 0 -66 27 -78 59 l-11 26 -12 -30 c-13 -29 -51 -55 -81 -55 -8 0 -26
11 -42 24 -22 19 -28 32 -28 64 0 79 84 123 132 70z m712 -4 c23 -30 28 -90 8
-115 -51 -66 -147 -33 -147 52 0 78 94 120 139 63z m275 -16 c5 -21 12 -38 16
-38 4 0 11 17 16 38 7 27 14 37 29 37 14 0 22 -10 28 -37 11 -48 23 -48 31 -2
7 36 30 54 47 37 6 -6 0 -39 -16 -92 -23 -72 -29 -82 -48 -79 -14 2 -24 13
-29 36 -10 37 -28 43 -28 8 0 -28 -24 -51 -44 -43 -8 3 -22 32 -31 64 -25 91
-25 91 -38 69 -7 -10 -22 -34 -34 -53 -13 -18 -23 -36 -23 -38 0 -2 15 -5 33
-7 20 -2 32 -8 32 -18 0 -12 -16 -15 -80 -16 -83 -1 -108 7 -98 33 4 10 14 13
32 10 23 -5 30 0 51 36 35 58 35 57 6 57 -20 0 -26 5 -26 20 0 20 5 21 83 18
l82 -3 9 -37z"/>
<path d="M7390 5482 c0 -21 -68 -45 -109 -39 -26 3 -44 1 -48 -6 -5 -7 -8
-226 -8 -487 l0 -475 -52 -3 -53 -3 3 305 c2 292 3 306 22 320 l20 15 -20 -2
c-19 -2 -20 4 -21 93 -1 52 -2 128 -3 168 l-1 72 -135 0 -135 0 0 -45 c0 -33
-4 -45 -15 -45 -8 0 -15 -4 -15 -10 0 -5 7 -10 15 -10 13 0 15 -58 15 -458 l0
-457 90 -90 90 -89 145 2 c166 2 152 -5 257 108 l67 72 0 511 1 511 -33 1
c-60 3 -65 4 -73 11 -4 4 -1 14 6 23 8 10 9 15 1 15 -6 0 -11 -4 -11 -8z"/>
<path d="M5434 5442 l-102 -3 -3 -37 c-6 -56 -2 -1152 3 -1157 3 -3 110 -5
238 -6 l234 0 84 84 84 84 -1 429 -1 429 -88 87 -87 87 -130 3 c-71 2 -176 2
-231 0z m266 -602 l0 -370 -50 0 -50 0 0 370 0 370 50 0 50 0 0 -370z"/>
<path d="M6374 5440 l-110 -5 -87 -80 -87 -79 0 -431 0 -430 86 -87 86 -88
152 0 152 0 81 79 c59 58 82 89 86 113 4 18 7 214 7 434 l0 402 -92 84 c-106
97 -102 96 -274 88z m90 -600 l1 -365 -53 -3 -52 -3 1 364 c0 201 3 368 7 371
3 4 26 6 51 4 l45 -3 0 -365z"/>
<path d="M7712 5442 l-93 -3 4 -372 c3 -326 2 -374 -12 -390 -13 -16 -13 -19
-1 -27 12 -7 14 -44 13 -204 -2 -110 2 -198 7 -201 5 -3 57 -6 115 -7 79 -2
108 -6 114 -16 7 -12 9 -11 14 2 5 14 22 16 94 15 49 -1 97 -1 108 0 12 1 59
40 108 88 l87 86 0 163 0 163 -70 52 c-72 54 -79 63 -57 76 6 4 32 31 57 58
l45 50 0 158 0 157 -77 76 -76 77 -143 1 c-79 0 -186 0 -237 -2z m286 -360 l3
-123 -53 3 -52 3 -2 69 c-2 60 0 69 17 73 24 7 19 29 -5 25 -15 -3 -17 2 -11
30 9 40 19 47 64 44 l36 -2 3 -122z m0 -485 l3 -128 -53 3 -53 3 -1 120 c-1
66 0 122 2 125 1 3 24 6 51 5 l48 0 3 -128z"/>
<path d="M8538 5443 l-208 -3 -1 -33 c-2 -46 2 -192 5 -194 2 -2 34 -4 72 -5
l69 -3 2 -85 c1 -47 2 -263 2 -481 1 -369 2 -397 19 -400 9 -2 70 -3 135 -1
l117 3 0 265 c0 239 2 264 17 264 15 0 15 1 0 18 -15 16 -17 47 -17 221 l0
202 63 -1 c34 -1 68 -1 75 -1 9 1 12 31 12 116 l0 115 -49 0 c-27 0 -61 1 -77
3 -16 2 -122 2 -236 0z"/>
<path d="M9833 5442 c-22 -3 -23 -7 -24 -115 -2 -404 1 -1081 6 -1085 7 -7
244 -4 256 4 14 8 10 1184 -4 1189 -16 6 -206 11 -234 7z"/>
<path d="M10389 5440 l-224 -5 1 -65 c0 -36 1 -86 2 -112 l2 -48 70 0 70 0 2
-107 c0 -60 1 -277 2 -483 l1 -375 133 -3 132 -3 1 33 c1 18 2 236 3 483 l1
450 70 3 c38 2 72 7 75 12 3 4 5 55 5 112 l-1 103 -60 5 c-33 3 -161 3 -285 0z"/>
<path d="M11440 5442 l-145 -2 -82 -86 -83 -86 0 -187 0 -188 94 -85 94 -85
91 -7 91 -8 0 -119 0 -119 -50 0 -49 0 -3 78 -3 77 -113 5 c-63 3 -122 2 -133
-2 -17 -7 -19 -18 -19 -115 l0 -108 82 -83 82 -82 156 0 155 0 83 83 82 82 0
185 0 185 -88 88 -88 87 -84 10 c-47 5 -91 10 -97 10 -10 0 -13 31 -13 120 l0
120 50 0 50 0 0 -80 0 -80 43 -1 c23 -1 83 -1 132 -1 l90 1 3 109 3 110 -73
68 c-39 38 -81 78 -92 89 -19 18 -32 20 -166 17z"/>
<path d="M12535 5440 l-260 -5 -3 -112 -3 -113 76 0 75 0 0 -485 0 -485 135 0
135 0 1 298 c0 163 1 380 2 482 l2 185 72 3 72 3 3 105 c2 59 1 109 -2 114 -9
14 -45 15 -305 10z"/>
<path d="M13008 5442 l-108 -3 -2 -522 c-2 -287 -2 -557 0 -599 l3 -78 134 0
135 0 0 241 0 240 51 -3 51 -3 -1 -237 -1 -238 135 0 c74 0 135 3 135 8 1 14
1 1038 1 1115 l-1 77 -135 0 -135 0 -2 -242 -3 -243 -47 -3 -46 -3 -1 238 c-1
131 -5 241 -9 244 -13 12 -46 14 -154 11z"/>
<path d="M13802 5442 l-132 -3 2 -597 3 -597 243 -5 c134 -3 246 -1 249 4 5 7
6 100 4 204 -1 21 -4 22 -116 22 l-115 0 0 145 0 145 95 0 96 0 -3 113 -3 112
-92 3 -93 3 0 109 0 110 45 0 c31 0 45 -4 45 -13 0 -17 34 -49 43 -40 4 3 2
13 -5 20 -17 20 6 33 60 33 l42 0 0 110 c0 80 -3 112 -12 115 -21 6 -214 10
-356 7z"/>
<path d="M10782 5323 l3 -118 43 3 c50 4 52 -4 12 -60 -16 -22 -30 -47 -30
-53 0 -18 68 -68 84 -62 7 3 43 55 80 115 l66 110 0 91 0 91 -130 0 -131 0 3
-117z"/>
<path d="M18357 5113 c-4 -3 -7 -51 -7 -105 l0 -98 1143 0 c628 0 1448 0 1822
0 374 0 758 0 853 0 l173 0 -3 103 -3 102 -1986 3 c-1092 1 -1989 -1 -1992 -5z"/>
<path d="M15576 5102 c-2 -4 -6 -48 -7 -97 l-2 -90 57 -3 c44 -2 57 0 54 10
-3 7 -21 14 -42 16 -32 3 -37 6 -34 25 2 17 11 23 36 25 31 3 45 20 20 24 -7
0 -17 2 -23 3 -5 2 -16 3 -23 4 -8 1 -12 11 -10 29 3 24 8 27 45 30 l41 3 32
-85 c43 -115 58 -115 99 0 32 88 37 114 22 114 -15 0 -29 -23 -43 -74 -8 -28
-20 -52 -26 -54 -6 -2 -16 16 -22 40 -21 79 -32 88 -105 88 -35 0 -66 -4 -69
-8z"/>
<path d="M16045 5097 c-3 -7 -5 -51 -3 -98 3 -70 6 -84 21 -87 14 -3 17 5 17
52 0 31 3 56 8 56 4 -1 23 -25 42 -55 20 -32 42 -55 53 -55 15 0 17 11 17 93
0 97 -5 114 -25 97 -8 -7 -10 -28 -7 -61 6 -64 -4 -62 -55 10 -40 58 -60 71
-68 48z"/>
<path d="M16825 5100 c-9 -14 -65 -171 -65 -182 0 -16 29 -8 40 12 7 14 21 20
45 20 25 0 35 -5 40 -20 4 -11 15 -20 27 -20 12 0 18 5 15 13 -3 6 -18 48 -33
92 -30 88 -51 114 -69 85z"/>
<path d="M16955 5098 c-3 -8 -5 -52 -3 -99 3 -70 6 -84 21 -87 13 -3 17 3 17
27 0 39 13 39 42 1 12 -16 30 -30 40 -30 23 0 23 9 -3 36 -20 21 -20 24 -5 46
20 28 21 82 1 98 -24 20 -103 26 -110 8z"/>
<path d="M17627 5103 c-4 -3 -7 -48 -7 -100 0 -74 3 -93 14 -93 11 0 16 15 18
53 l4 52 24 -52 c13 -29 30 -53 37 -53 8 0 24 21 36 48 l22 47 3 -47 c3 -41 6
-48 24 -48 20 0 21 3 15 91 -8 132 -22 137 -67 27 -13 -32 -26 -58 -29 -58 -3
0 -20 32 -38 70 -30 66 -41 79 -56 63z"/>
<path d="M16049 4585 c-1 -41 -2 -81 -3 -87 -1 -7 7 -14 16 -16 13 -3 17 6 20
40 l3 43 23 -42 c12 -24 26 -43 31 -43 4 0 16 18 26 40 20 44 40 44 31 0 -3
-18 0 -33 9 -40 22 -18 27 5 23 96 -2 63 -6 79 -19 82 -12 2 -22 -12 -35 -48
-28 -77 -37 -79 -67 -10 -37 87 -57 82 -58 -15z"/>
<path d="M17455 4640 c-9 -10 -20 -39 -22 -64 -5 -40 -2 -48 25 -76 30 -30 32
-30 61 -15 34 17 48 62 37 120 -10 54 -66 74 -101 35z"/>
<path d="M17958 4650 c-27 -16 -41 -74 -28 -115 32 -96 120 -69 120 37 0 70
-43 106 -92 78z"/>
<path d="M18556 4575 c-7 -91 -4 -107 19 -98 10 3 15 19 15 44 0 50 13 50 30
-1 7 -22 20 -40 27 -40 8 0 22 18 30 40 9 22 20 40 25 40 4 0 8 -18 8 -40 0
-29 4 -40 15 -40 13 0 15 14 13 87 -4 109 -19 118 -55 34 -14 -33 -30 -58 -34
-55 -5 3 -20 30 -34 60 -36 79 -51 72 -59 -31z"/>
<path d="M19627 4653 c-2 -5 -4 -44 -3 -88 1 -67 4 -80 19 -83 14 -3 17 4 17
47 0 28 4 51 9 51 5 0 21 -19 34 -43 29 -48 53 -72 60 -60 3 4 7 46 8 93 3 74
1 85 -14 88 -14 3 -17 -5 -17 -47 0 -28 -4 -51 -9 -51 -5 0 -23 23 -41 50 -29
46 -52 61 -63 43z"/>
<path d="M16286 4599 c-26 -20 -35 -69 -18 -95 14 -21 47 -33 65 -23 10 6 26
7 37 4 19 -6 20 -2 16 55 -2 34 -6 63 -8 64 -1 2 -17 6 -35 9 -23 5 -38 1 -57
-14z"/>
<path d="M18248 4613 c-31 -5 -37 -21 -35 -88 2 -29 7 -41 20 -43 14 -3 17 4
17 47 0 44 3 51 19 51 17 0 20 -8 23 -47 2 -35 7 -48 18 -48 11 0 16 13 18 48
3 39 6 47 23 47 16 0 19 -7 19 -50 0 -38 4 -50 15 -50 22 0 21 103 -1 124 -18
19 -36 20 -51 5 -8 -8 -17 -8 -31 0 -11 6 -22 10 -24 10 -2 -1 -15 -4 -30 -6z"/>
<path d="M19198 4613 c-28 -4 -28 -4 -28 -89 0 -46 0 -87 -1 -91 0 -5 7 -9 15
-11 10 -2 16 6 18 25 2 20 9 29 25 31 51 7 70 85 31 122 -12 11 -24 19 -27 19
-3 -1 -18 -4 -33 -6z"/>
<path d="M9068 4472 l-96 -3 -4 -112 c-2 -62 -2 -114 -1 -116 2 -3 26 -4 53
-2 30 1 50 -2 50 -8 0 -6 -16 -33 -35 -60 -19 -26 -35 -51 -35 -53 0 -8 75
-58 87 -58 7 0 33 35 60 78 26 42 58 92 71 111 20 31 22 45 20 130 l-3 95 -35
1 c-19 0 -78 -1 -132 -3z"/>
<path d="M20138 4303 c-2 -20 -9 -27 -27 -28 -31 -2 -51 -30 -51 -71 0 -44 24
-66 69 -62 l36 3 3 93 c2 76 0 92 -12 92 -8 0 -16 -11 -18 -27z"/>
<path d="M20628 4322 c-16 -3 -18 -16 -18 -93 0 -81 2 -90 18 -87 10 2 17 12
17 27 0 36 22 37 40 2 8 -17 22 -31 30 -31 19 0 19 24 0 40 -8 7 -15 18 -15
25 0 7 7 18 15 25 45 37 -22 107 -87 92z"/>
<path d="M22310 4305 c0 -14 -6 -26 -12 -26 -7 -1 -17 -2 -23 -4 -5 -1 -16 -3
-22 -3 -7 -1 -20 -16 -29 -33 -13 -26 -13 -36 -4 -60 13 -31 36 -41 85 -36
l30 2 3 93 c2 77 0 92 -13 92 -9 0 -15 -9 -15 -25z"/>
<path d="M15580 4230 c0 -82 2 -91 18 -88 11 2 19 15 22 38 5 35 14 39 63 31
4 0 7 -17 7 -37 0 -27 4 -35 16 -32 25 5 27 171 2 176 -13 2 -17 -5 -20 -35
-3 -35 -5 -38 -33 -38 -27 0 -31 4 -35 35 -3 23 -11 36 -22 38 -16 3 -18 -6
-18 -88z"/>
<path d="M16128 4308 c-2 -7 -6 -48 -7 -91 -3 -72 -1 -79 16 -75 15 3 17 11
15 47 -5 56 15 52 37 -7 18 -51 39 -52 56 -3 15 45 37 54 35 15 -3 -46 -1 -54
15 -54 12 0 15 17 15 90 0 110 -16 120 -56 35 -15 -30 -30 -55 -35 -55 -5 0
-21 25 -36 55 -26 53 -46 69 -55 43z"/>
<path d="M17455 4300 c-28 -31 -31 -100 -5 -132 52 -67 122 -8 106 90 -9 60
-64 83 -101 42z"/>
<path d="M17605 4295 c-49 -48 -24 -155 35 -155 27 0 60 35 60 63 0 29 -29 57
-58 57 -15 0 -20 5 -16 15 4 8 17 15 30 15 15 0 24 6 24 15 0 24 -48 18 -75
-10z"/>
<path d="M17945 4300 c-24 -27 -25 -98 -2 -133 21 -33 58 -36 87 -7 25 25 27
105 4 138 -19 28 -65 29 -89 2z"/>
<path d="M18586 4273 c-10 -27 -24 -63 -32 -81 -8 -18 -14 -37 -14 -42 0 -18
29 -10 40 10 7 13 21 20 40 20 19 0 33 -7 40 -20 11 -21 40 -28 40 -10 0 6
-14 47 -31 90 -37 97 -57 105 -83 33z"/>
<path d="M19174 4305 c3 -9 16 -50 27 -91 27 -92 49 -99 68 -24 10 40 16 48
26 40 7 -6 16 -27 20 -46 5 -31 28 -54 40 -42 9 9 52 168 47 173 -16 16 -31
-1 -42 -45 -14 -60 -26 -64 -35 -12 -13 79 -45 83 -64 7 -13 -54 -21 -52 -36
8 -9 33 -16 43 -34 45 -19 3 -22 0 -17 -13z"/>
<path d="M21019 4245 c-1 -41 -2 -81 -3 -87 -1 -7 7 -14 17 -16 14 -3 17 4 17
37 0 52 13 52 34 1 9 -22 21 -40 27 -40 6 0 18 18 26 40 9 22 20 40 25 40 4 0
8 -18 8 -40 0 -29 4 -40 15 -40 12 0 15 17 15 90 0 113 -17 121 -59 29 -31
-68 -30 -68 -68 14 -34 73 -53 63 -54 -28z"/>
<path d="M22088 4308 c-3 -7 -4 -47 -4 -88 1 -63 4 -75 19 -78 13 -3 17 3 17
27 0 39 13 39 40 1 12 -16 28 -30 36 -30 18 0 18 5 -2 35 -15 23 -15 28 -1 57
25 52 0 88 -64 88 -20 0 -39 -6 -41 -12z"/>
<path d="M15772 4257 c-27 -28 -29 -78 -4 -100 12 -11 33 -15 67 -13 l49 2 -3
55 c-1 30 -6 57 -9 60 -4 4 -23 9 -43 13 -29 5 -39 2 -57 -17z"/>
<path d="M18249 4273 c-30 -5 -35 -17 -34 -83 0 -34 4 -45 18 -48 14 -3 17 4
17 47 0 28 5 51 10 51 6 0 13 0 18 0 4 0 9 -21 12 -47 4 -34 9 -48 20 -48 11
0 15 12 16 43 1 81 44 83 44 1 0 -37 4 -49 15 -49 12 0 15 13 15 60 0 50 -3
61 -21 71 -16 8 -28 8 -45 0 -15 -6 -25 -7 -29 -1 -6 10 -9 10 -56 3z"/>
<path d="M19442 4264 c-28 -20 -31 -83 -4 -107 30 -28 70 -22 90 13 21 36 28
37 36 5 12 -49 99 -42 112 10 15 61 -31 110 -82 86 -14 -6 -28 -20 -31 -31 -5
-20 -23 -28 -23 -10 0 16 -39 50 -58 50 -10 0 -28 -7 -40 -16z"/>
<path d="M19789 4261 c-17 -13 -23 -29 -23 -56 0 -49 24 -66 84 -61 l45 4 -4
58 c-1 33 -4 60 -5 60 0 1 -17 4 -37 8 -28 5 -42 2 -60 -13z"/>
<path d="M20222 4263 c-30 -26 -33 -80 -6 -107 11 -12 29 -15 62 -12 l47 4 -4
58 c-1 33 -4 60 -5 60 0 1 -17 4 -37 8 -27 5 -42 2 -57 -11z"/>
<path d="M21653 4273 c-22 -4 -23 -9 -23 -99 0 -77 3 -94 15 -94 10 0 15 10
15 30 0 25 4 30 23 30 53 0 77 80 37 120 -20 20 -25 21 -67 13z"/>
<path d="M15745 3965 c-48 -47 -26 -165 31 -165 70 0 97 123 37 170 -33 26
-39 25 -68 -5z"/>
<path d="M16761 3971 c-7 -12 -11 -53 -9 -94 2 -59 6 -72 21 -75 13 -3 17 3
17 27 0 40 20 40 42 1 17 -31 48 -41 48 -16 0 7 -7 19 -15 26 -8 7 -15 18 -15
25 0 7 7 18 15 25 36 29 2 87 -57 96 -30 5 -38 3 -47 -15z"/>
<path d="M17455 3958 c-23 -27 -26 -39 -22 -75 5 -51 30 -83 63 -83 60 0 88
117 39 165 -32 33 -48 31 -80 -7z"/>
<path d="M17810 3972 c-17 -13 -24 -32 -28 -71 -4 -44 -1 -55 18 -76 37 -40
84 -31 105 18 l13 31 15 -31 c41 -78 117 -45 117 49 0 39 -5 54 -25 73 -13 14
-29 25 -35 25 -12 0 -49 -36 -67 -66 -11 -18 -12 -18 -12 3 -1 22 -44 63 -66
63 -7 0 -23 -8 -35 -18z"/>
<path d="M19090 3901 l0 -89 36 -7 c38 -7 74 13 74 42 0 7 5 13 10 13 6 0 10
-6 10 -13 0 -28 34 -46 80 -42 l45 3 -4 59 c-1 32 -4 59 -6 61 -2 2 -18 5 -36
7 -37 5 -79 -17 -79 -40 0 -8 -4 -15 -10 -15 -5 0 -10 6 -10 13 0 20 -33 47
-58 47 -17 0 -22 6 -22 25 0 16 -6 25 -15 25 -12 0 -15 -17 -15 -89z"/>
<path d="M20602 3974 c-35 -25 -26 -64 21 -89 47 -25 46 -50 -3 -50 -51 0 -48
-29 3 -33 29 -3 42 2 59 21 l22 25 18 -24 c16 -19 27 -23 69 -21 45 2 49 4 45
22 -3 11 -6 39 -6 61 0 40 -1 42 -37 47 -44 8 -83 -13 -83 -43 0 -25 -12 -25
-35 0 -10 11 -26 22 -36 25 -34 11 -22 35 16 35 39 0 46 14 16 30 -27 14 -43
13 -69 -6z"/>
<path d="M21120 3950 c-8 -15 -17 -18 -41 -13 -63 12 -105 -71 -58 -118 12
-12 30 -19 46 -17 37 4 41 26 6 30 -25 3 -28 7 -28 38 0 33 2 35 38 38 37 3
37 3 37 -33 0 -20 5 -45 10 -56 13 -23 60 -26 60 -4 0 8 -6 15 -14 15 -31 0
-35 64 -6 80 21 11 21 11 -2 35 -28 30 -34 31 -48 5z"/>
<path d="M16028 3932 c-27 -3 -28 -5 -28 -68 0 -50 3 -64 15 -64 11 0 15 12
15 44 0 49 24 81 41 55 5 -8 8 -32 7 -54 -2 -31 1 -40 14 -43 14 -3 17 6 20
50 2 39 7 53 18 53 11 0 16 -14 18 -53 3 -44 6 -53 20 -50 25 5 30 99 6 119
-16 13 -84 18 -146 11z"/>
<path d="M18248 3932 c-31 -4 -37 -18 -35 -82 2 -33 6 -45 17 -45 11 0 16 14
20 50 4 36 9 50 20 50 11 0 16 -14 20 -50 4 -36 9 -50 20 -50 11 0 15 11 15
42 0 44 18 74 34 58 6 -6 11 -30 13 -54 2 -25 9 -46 16 -49 16 -5 17 114 0
124 -13 8 -96 12 -140 6z"/>
<path d="M19450 3920 c-28 -28 -30 -72 -3 -101 10 -12 29 -17 63 -15 l49 1 -6
60 c-3 33 -7 62 -9 64 -2 2 -19 5 -39 7 -25 2 -42 -3 -55 -16z"/>
<path d="M19651 3914 c-17 -21 -21 -37 -17 -58 9 -46 23 -55 76 -53 l48 2 0
58 c0 31 -3 59 -7 61 -3 2 -22 7 -42 11 -32 6 -39 3 -58 -21z"/>
<path d="M20174 3931 c-2 -2 -4 -33 -4 -68 0 -79 22 -84 30 -7 4 35 9 49 20
49 11 0 16 -14 20 -50 4 -36 9 -50 20 -50 11 0 16 14 20 50 4 36 9 50 20 50
11 0 16 -14 18 -52 2 -38 7 -53 18 -53 16 0 17 5 14 70 -1 25 -6 49 -11 55 -9
9 -156 15 -165 6z"/>
<path d="M21523 3933 c-20 -7 -18 -133 2 -133 11 0 15 12 15 48 0 42 3 50 25
60 22 10 27 9 32 -6 3 -9 12 -32 19 -51 20 -50 17 -70 -12 -81 -14 -6 -22 -14
-19 -20 10 -16 40 -12 58 8 20 22 73 169 64 178 -11 12 -34 -15 -41 -48 -7
-35 -16 -31 -32 15 -10 29 -15 32 -55 34 -24 1 -50 -1 -56 -4z"/>
<path d="M11805 3902 c-88 -2 -127 -6 -131 -15 -2 -7 -5 -350 -7 -762 l-2
-750 -88 -3 -88 -3 1 438 c0 241 0 585 0 766 l0 327 -199 0 c-110 0 -202 -4
-205 -8 -6 -11 -8 -217 -7 -963 l1 -635 139 -137 138 -137 226 0 225 1 129
130 c70 71 131 137 134 147 4 10 6 323 6 696 0 572 2 679 14 687 11 7 11 11 2
17 -8 5 -13 42 -15 102 l-3 95 -73 5 c-39 3 -129 4 -197 2z"/>
<path d="M9337 3863 c-3 -21 -5 -463 -4 -983 l2 -945 38 -3 37 -3 0 138 c1 76
1 269 1 428 -1 160 -1 541 -1 848 l0 557 -34 0 c-32 0 -35 -3 -39 -37z"/>
<path d="M10047 3763 l-137 -136 0 -287 0 -287 58 -52 c31 -29 93 -87 137
-130 94 -92 86 -89 350 -105 l40 -2 0 -194 0 -195 -85 0 -85 0 -5 120 -5 120
-202 3 -203 2 0 -162 1 -163 133 -137 134 -138 228 0 229 0 133 133 132 132 2
289 1 288 -124 119 c-68 66 -133 126 -144 134 -13 9 -71 18 -160 25 -77 6
-143 14 -147 18 -9 9 -12 368 -3 382 5 8 36 10 88 8 l81 -3 4 -125 c2 -68 5
-126 7 -128 3 -4 388 -3 391 1 1 1 4 76 7 167 l4 165 -47 45 c-25 25 -90 87
-144 138 l-98 92 -217 0 -217 0 -137 -137z"/>
<path d="M12309 3823 c0 -43 -1 -465 -1 -938 l-1 -860 201 -3 202 -2 2 377 3
378 87 3 88 3 2 -378 3 -378 194 0 195 0 -1 379 -1 379 -96 84 c-95 84 -109
105 -82 120 8 4 53 41 99 81 l85 74 -3 245 -2 246 -136 134 -136 133 -351 0
-350 0 -1 -77z m581 -483 l0 -210 -90 0 -90 0 0 194 c0 107 3 201 6 210 5 13
23 16 90 16 l84 0 0 -210z"/>
<path d="M13492 2963 l3 -938 360 -2 c198 -1 369 -1 380 2 21 4 22 31 16 288
l-1 57 -175 0 c-175 0 -175 0 -176 23 -1 34 -1 430 0 445 1 10 32 13 144 11
l142 -3 3 172 2 172 -144 0 -145 0 -3 123 c-2 67 -2 147 0 178 l3 56 166 2
c91 0 168 3 172 6 4 2 7 80 7 172 l-1 168 -378 3 -377 2 2 -937z"/>
<path d="M7018 3812 l-127 -3 -7 -44 c-3 -25 -10 -48 -15 -51 -5 -3 -9 -31 -8
-62 1 -31 -6 -106 -14 -167 -51 -362 -70 -514 -65 -527 5 -11 24 -14 86 -13
43 1 84 5 89 8 6 4 13 38 17 77 l7 70 55 0 54 0 1 -47 c0 -46 6 -94 12 -99 2
-2 43 -4 92 -6 l90 -3 -1 40 c0 22 -14 135 -32 250 -17 116 -40 280 -52 365
-27 197 -29 208 -43 212 -7 1 -69 2 -139 0z m31 -319 c7 -71 15 -150 18 -176
l6 -48 -39 3 c-24 2 -38 8 -37 15 2 7 5 45 7 85 8 146 19 248 26 248 3 0 12
-57 19 -127z"/>
<path d="M6172 3738 c-22 -40 -77 -144 -122 -232 -45 -87 -90 -172 -101 -190
-24 -40 -24 -45 8 -127 27 -69 27 -69 67 -71 23 -1 72 0 109 1 l68 3 -3 -89
-3 -90 95 1 95 1 5 85 5 85 35 0 35 0 3 78 3 77 -41 0 -41 0 1 168 c1 92 1
213 1 270 l-1 102 -89 0 -89 0 -40 -72z m30 -350 l-3 -118 -60 0 c-32 0 -59 2
-59 4 0 2 22 48 49 102 26 55 51 110 56 123 14 45 20 5 17 -111z"/>
<path d="M7337 3793 c-3 -10 -5 -202 -4 -426 2 -317 5 -409 15 -416 7 -4 49
-7 95 -7 l82 1 3 148 3 147 62 0 63 0 62 63 62 63 0 158 0 158 -66 64 -65 64
-154 0 c-138 0 -154 -2 -158 -17z"/>
<path d="M7825 3798 c-2 -7 -3 -200 -2 -428 l2 -415 50 -6 c28 -4 71 -4 98 -1
l47 5 0 174 0 174 38 -4 37 -4 2 -168 c1 -92 3 -168 5 -170 2 -2 42 -6 89 -9
74 -5 88 -4 93 10 3 8 6 88 6 177 l0 161 -47 43 -47 44 47 46 47 45 0 104 0
104 -66 65 -66 65 -165 0 c-122 0 -165 -3 -168 -12z"/>
<path d="M8387 3384 c1 -234 3 -427 5 -429 6 -7 160 -13 175 -8 11 4 13 84 13
434 l0 429 -97 0 -98 0 2 -426z"/>
<path d="M8688 3768 c-6 -55 -2 -807 4 -814 3 -2 83 -6 179 -7 l174 -2 0 84 0
83 -80 2 -80 2 -3 347 -2 347 -94 0 -93 0 -5 -42z"/>
<path d="M21036 3653 c-3 -3 -6 -46 -6 -93 l0 -87 32 -7 c48 -9 78 15 78 63 0
42 -23 71 -58 71 -17 0 -22 6 -22 24 0 26 -12 40 -24 29z"/>
<path d="M16614 3637 c-3 -8 -4 -49 -2 -93 2 -62 6 -79 18 -79 9 0 16 11 18
28 4 35 13 34 40 -3 13 -16 29 -30 37 -30 20 0 19 10 -4 39 -17 22 -17 26 -3
51 20 34 10 73 -23 88 -35 16 -74 15 -81 -1z"/>
<path d="M17462 3630 c-56 -53 -30 -170 39 -170 32 0 54 39 54 97 0 45 -4 58
-24 74 -30 24 -42 24 -69 -1z"/>
<path d="M17603 3633 c-25 -17 -30 -42 -11 -61 9 -9 8 -16 -5 -30 -22 -25 -21
-37 5 -62 29 -26 59 -25 86 3 26 28 27 35 5 59 -13 14 -14 21 -5 30 19 19 14
45 -10 62 -27 19 -37 19 -65 -1z"/>
<path d="M17952 3627 c-30 -32 -37 -76 -19 -120 21 -48 58 -59 93 -26 34 32
35 115 1 147 -30 28 -48 28 -75 -1z"/>
<path d="M18555 3627 c-3 -12 -5 -54 -3 -92 l3 -70 38 -3 c48 -4 87 19 87 53
0 13 -5 27 -10 30 -6 4 -8 21 -4 40 5 27 2 35 -17 49 -13 9 -38 16 -56 16 -26
0 -34 -5 -38 -23z"/>
<path d="M15851 3577 c-9 -24 1 -107 14 -110 6 -1 11 12 13 28 5 54 12 75 26
75 17 0 27 -25 20 -45 -9 -22 5 -67 19 -62 7 2 14 26 17 53 4 35 10 50 22 52
14 3 17 -6 20 -50 2 -39 7 -53 18 -53 12 0 14 11 12 55 -2 30 -8 60 -13 65 -6
6 -44 10 -86 10 -64 0 -76 -2 -82 -18z"/>
<path d="M18219 3571 c-14 -36 -7 -106 11 -106 11 0 16 15 20 50 4 36 10 51
22 53 14 3 17 -6 20 -50 2 -39 7 -53 18 -53 11 0 16 14 18 53 3 44 6 53 20 50
12 -2 18 -17 22 -51 3 -26 10 -49 15 -50 14 -3 19 103 5 117 -6 6 -45 11 -87
11 -70 0 -76 -1 -84 -24z"/>
<path d="M15555 3057 c-3 -12 -5 -54 -3 -92 2 -57 6 -70 21 -73 13 -3 17 3 17
26 0 24 6 32 29 40 80 28 53 122 -34 122 -17 0 -26 -7 -30 -23z"/>
<path d="M18057 3073 c-4 -3 -7 -46 -7 -95 l0 -88 34 0 c25 0 40 7 55 26 25
32 26 38 6 57 -10 11 -13 25 -8 48 5 25 2 35 -12 46 -20 14 -57 18 -68 6z"/>
<path d="M20150 3051 c-39 -39 -41 -87 -4 -130 29 -35 82 -43 104 -16 12 14
15 14 30 0 13 -12 28 -14 59 -9 44 7 46 10 35 76 -5 31 -11 38 -36 43 -38 9
-78 -25 -78 -67 0 -26 -3 -28 -39 -28 -30 0 -44 6 -55 22 -35 49 -7 108 50
108 45 0 41 24 -4 28 -25 3 -39 -4 -62 -27z"/>
<path d="M19367 3031 c-7 -27 4 -113 16 -128 13 -18 47 -16 47 2 0 8 -7 15
-16 15 -12 0 -14 9 -12 37 5 58 30 55 56 -8 28 -66 28 -77 -4 -89 -14 -6 -22
-14 -19 -20 10 -16 33 -12 52 9 20 22 69 158 60 167 -11 11 -25 -6 -32 -36 -9
-43 -22 -45 -35 -6 -9 28 -17 35 -45 40 -21 4 -35 13 -35 21 0 22 -27 18 -33
-4z"/>
<path d="M16144 3015 c-10 -25 1 -178 13 -182 7 -3 13 9 15 28 3 28 7 33 32
34 15 0 34 9 42 20 20 27 17 79 -4 98 -21 19 -91 20 -98 2z"/>
<path d="M16573 3014 c-9 -23 2 -117 15 -122 8 -2 12 11 12 47 0 37 4 53 15
58 22 8 24 3 27 -53 2 -36 7 -49 18 -49 11 0 16 14 18 53 3 43 6 52 22 52 16
0 19 -9 22 -52 2 -39 7 -53 18 -53 18 0 22 54 8 102 l-9 31 -81 -1 c-51 0 -82
-5 -85 -13z"/>
<path d="M18390 2992 c-23 -29 -24 -33 -8 -67 12 -27 13 -27 71 -29 38 -1 38
0 32 30 -7 39 3 72 16 52 5 -7 14 -30 19 -50 13 -46 28 -48 43 -8 14 38 22 38
36 -1 6 -17 16 -29 22 -27 14 5 50 108 42 121 -8 13 -33 -21 -33 -45 0 -29
-18 -21 -25 12 -10 45 -24 46 -41 3 l-16 -38 -17 34 c-15 31 -20 33 -69 36
-46 2 -55 -1 -72 -23z"/>
<path d="M7761 2868 c-10 -15 -19 -17 -65 -12 -64 8 -79 1 -151 -73 l-55 -55
0 -305 0 -304 61 -60 c66 -65 56 -62 209 -59 l75 1 58 60 57 60 0 303 0 304
-62 61 c-34 33 -66 61 -70 61 -4 0 -16 8 -27 19 -18 18 -18 18 -30 -1z m-1
-303 c3 -72 5 -193 5 -270 l0 -140 -45 0 -45 0 0 227 c0 125 2 248 4 273 l3
46 37 -3 36 -4 5 -129z"/>
<path d="M7102 2849 c-9 -4 -43 -34 -75 -66 l-58 -60 3 -69 3 -69 88 -3 87 -3
0 59 0 59 45 0 45 0 -2 -71 -1 -71 -134 -131 -134 -131 3 -144 3 -144 223 -3
222 -2 0 75 0 75 -52 1 c-29 1 -89 2 -133 3 l-80 1 -3 40 c-3 39 -2 41 134
172 l137 132 -1 116 -1 116 -59 60 -59 59 -92 3 c-50 1 -99 -1 -109 -4z"/>
<path d="M8198 2852 c-42 -3 -52 -9 -107 -65 l-61 -61 0 -73 0 -74 92 3 93 3
0 55 0 55 43 1 c23 0 43 -5 43 -10 1 -6 1 -38 0 -71 l-2 -60 -135 -132 -134
-131 0 -145 0 -146 148 -3 c81 -2 182 -2 225 0 l77 4 0 74 0 74 -32 1 c-18 0
-78 2 -133 2 l-100 2 -3 41 c-3 40 -2 41 131 167 l134 127 5 91 c8 125 0 152
-64 216 -52 52 -56 54 -113 56 -33 1 -81 1 -107 -1z"/>
<path d="M8743 2852 c-62 -3 -63 -4 -123 -63 l-60 -61 0 -302 0 -302 63 -62
63 -62 110 0 110 0 57 59 57 59 0 306 0 306 -66 63 c-73 68 -67 66 -211 59z
m84 -160 c17 -11 17 -524 0 -534 -7 -4 -26 -8 -44 -8 -31 0 -32 1 -35 48 -2
26 -2 149 0 275 l3 227 32 0 c18 0 37 -4 44 -8z"/>
<path d="M15914 2727 c-9 -24 1 -172 11 -172 6 0 12 20 15 44 4 36 7 42 17 30
6 -8 14 -26 18 -42 8 -31 45 -39 45 -9 1 9 7 28 15 42 15 27 22 19 27 -33 2
-15 8 -27 13 -27 6 0 10 36 10 87 0 107 -15 119 -50 39 -14 -31 -29 -56 -35
-56 -6 0 -21 25 -35 55 -23 54 -41 68 -51 42z"/>
<path d="M17060 2722 c-29 -24 -38 -93 -16 -126 52 -80 139 -29 123 72 -11 63
-63 90 -107 54z"/>
<path d="M17560 2720 c-61 -61 -10 -198 59 -160 44 23 55 109 20 154 -24 31
-52 33 -79 6z"/>
<path d="M17834 2676 c-9 -23 0 -121 11 -119 6 1 12 24 15 50 4 40 8 48 25 48
17 0 20 -7 20 -45 0 -34 4 -45 18 -48 14 -3 17 4 17 47 0 44 3 51 19 51 17 0
20 -8 23 -52 2 -39 7 -53 18 -53 22 0 27 97 6 118 -20 20 -165 23 -172 3z"/>
<path d="M4854 2641 c-5 -4 -40 -13 -78 -20 -122 -21 -208 -53 -225 -83 -11
-19 -26 -28 -56 -33 -44 -6 -115 -56 -115 -81 0 -8 -11 -19 -25 -24 -21 -8
-24 -14 -19 -34 3 -15 -1 -34 -11 -50 -9 -14 -19 -43 -21 -65 -4 -44 -32 -121
-44 -121 -4 0 -11 -11 -14 -25 -4 -17 -11 -23 -24 -19 -14 5 -14 4 -2 -4 12
-10 12 -22 -4 -99 -26 -124 -34 -286 -19 -390 12 -80 50 -222 64 -233 22 -19
54 -260 51 -390 -1 -40 -19 -77 -41 -85 -9 -3 -30 -18 -48 -33 l-31 -27 96 0
c67 0 97 -4 100 -12 2 -9 28 -13 78 -13 49 0 73 -4 69 -10 -4 -6 -11 -8 -16
-4 -5 3 -16 1 -23 -5 -7 -6 -20 -9 -28 -6 -25 10 -81 -37 -91 -75 -5 -19 -13
-39 -18 -44 -5 -6 -9 -29 -9 -53 0 -47 47 -147 84 -181 54 -49 168 -57 246
-16 43 22 54 35 80 89 33 70 36 97 16 170 -18 70 -32 88 -93 125 -53 33 -73
68 -32 57 14 -4 19 -2 16 8 -3 7 10 26 29 43 l35 31 -7 153 c-4 84 -11 161
-16 170 -13 26 -64 201 -90 308 -20 84 -15 276 10 395 30 140 51 208 69 222 8
6 17 31 20 55 3 24 12 55 19 70 8 15 14 34 14 43 0 9 9 36 20 60 16 35 30 48
72 68 29 14 68 28 86 32 21 4 37 16 44 30 14 31 48 45 111 45 l52 1 -32 14
c-18 8 -72 17 -120 21 -51 4 -95 12 -104 20 -8 8 -19 10 -25 5z m-294 -2099
c0 -4 -9 -13 -21 -20 -32 -20 -15 -26 19 -7 27 16 31 16 60 1 25 -13 37 -14
53 -5 33 17 31 6 -6 -34 -33 -36 -48 -41 -110 -37 -51 3 -131 70 -83 70 5 0
21 9 35 20 26 20 53 27 53 12z"/>
<path d="M5863 2569 c-16 -16 -25 -19 -39 -11 -48 25 -262 -5 -303 -42 -10 -9
-22 -16 -27 -16 -5 0 -25 -8 -44 -19 -19 -10 -52 -24 -72 -30 -21 -7 -38 -17
-38 -21 0 -5 -13 -25 -30 -43 -16 -19 -30 -42 -30 -50 0 -9 -16 -32 -35 -51
-26 -26 -35 -44 -35 -68 0 -19 -7 -43 -15 -55 -8 -12 -12 -28 -9 -37 6 -15
-31 -137 -61 -202 -21 -44 -29 -179 -20 -327 6 -102 11 -130 26 -148 21 -24
49 -113 55 -174 2 -23 10 -84 19 -136 8 -52 15 -126 15 -165 0 -60 -4 -77 -29
-115 -29 -47 -46 -55 -156 -77 l-40 -8 59 -40 c33 -21 66 -43 75 -49 50 -32
105 -82 151 -140 30 -36 59 -65 66 -65 10 0 24 -21 24 -35 0 -2 -12 -2 -26 -1
-17 2 -32 15 -46 37 -11 19 -34 48 -52 65 -17 17 -39 42 -48 56 -9 14 -33 33
-53 42 -20 10 -52 31 -71 48 -63 55 -197 109 -278 112 -16 1 -31 7 -33 14 -9
24 -19 12 -15 -17 2 -16 24 -50 48 -77 37 -39 55 -51 107 -65 81 -22 178 -58
197 -74 8 -7 22 -15 30 -19 8 -3 -2 -4 -24 -2 -21 3 -46 11 -55 18 -15 13 -85
37 -163 57 -35 9 -37 8 -43 -20 -4 -19 -12 -29 -22 -27 -9 2 -18 -3 -21 -11
-3 -9 1 -11 17 -6 30 9 28 -19 -4 -61 -14 -18 -25 -37 -25 -42 0 -19 -81 -91
-109 -97 -20 -4 -28 -11 -24 -21 4 -10 -2 -14 -21 -14 -14 0 -26 4 -26 10 0
12 -82 9 -91 -4 -9 -12 -31 3 -23 16 4 6 2 8 -4 4 -14 -9 -98 37 -94 53 1 7
-2 10 -8 6 -5 -3 -10 -1 -10 4 0 6 -7 11 -15 11 -8 0 -15 5 -15 10 0 6 7 10
16 10 13 0 14 3 4 15 -7 8 -16 13 -20 10 -17 -11 -27 24 -26 92 1 39 -1 68 -4
64 -3 -5 -18 -11 -35 -15 -107 -24 -109 -44 -16 -166 39 -50 72 -99 75 -108 3
-9 14 -22 24 -27 49 -26 122 -78 122 -86 0 -18 -28 -8 -44 16 -9 14 -21 25
-26 25 -16 0 11 -59 39 -82 32 -28 61 -68 61 -85 0 -7 -17 -24 -38 -37 -45
-28 -72 -53 -72 -67 0 -5 237 -9 600 -9 l600 0 0 24 c0 13 -7 29 -15 36 -9 7
-13 21 -9 35 7 27 -18 54 -57 62 -32 6 -50 23 -25 23 9 0 16 5 16 10 0 6 7 10
17 10 15 0 15 1 0 18 -10 10 -17 26 -17 36 0 25 -24 14 -28 -12 -4 -24 -40
-30 -60 -10 -9 9 -16 7 -32 -7 -20 -18 -20 -18 -20 24 0 23 -6 54 -14 69 -7
15 -17 42 -21 59 -6 31 -5 33 18 31 20 -2 24 -6 17 -18 -5 -9 -5 -22 0 -30 4
-7 6 -19 3 -27 -7 -18 15 -43 38 -43 13 0 19 -7 19 -21 0 -17 4 -19 23 -13 12
4 25 11 28 17 4 5 15 7 24 3 28 -10 38 4 18 27 -18 20 -17 20 5 15 12 -4 22
-2 22 3 0 5 -3 9 -8 9 -7 0 -32 70 -32 92 0 7 8 1 17 -12 20 -30 34 -40 45
-34 12 8 10 21 -6 37 -8 8 -24 39 -35 68 -47 130 -60 159 -80 180 -21 23 -36
57 -28 65 2 3 22 -18 43 -46 21 -27 44 -50 50 -50 19 0 74 -34 74 -46 0 -5 9
-20 20 -32 11 -12 20 -24 20 -28 0 -4 18 -31 40 -60 40 -53 49 -74 30 -74 -5
0 -10 -5 -10 -11 0 -6 9 -8 20 -4 11 4 20 2 20 -4 0 -6 -4 -11 -10 -11 -5 0
-10 -9 -10 -20 0 -26 -17 -26 -25 0 -6 20 -64 74 -72 66 -12 -11 72 -116 92
-116 7 0 18 12 25 28 11 22 14 24 18 9 2 -10 -2 -25 -9 -33 -9 -11 -9 -18 3
-32 9 -9 18 -26 22 -37 3 -11 17 -25 31 -32 24 -11 25 -10 19 10 -4 16 3 11
26 -16 23 -27 39 -37 51 -34 13 4 19 0 19 -13 0 -9 9 -29 21 -43 11 -15 23
-43 26 -63 l6 -36 14 33 c15 36 9 59 -38 150 -11 20 -19 56 -19 81 0 25 -7 54
-17 68 -29 40 -83 152 -83 171 0 9 -8 20 -17 23 -14 6 -15 9 -4 15 11 7 8 16
-13 43 -14 19 -26 38 -26 41 0 14 83 7 116 -9 19 -9 37 -14 40 -11 12 11 -73
56 -118 62 -26 4 -45 11 -42 16 10 17 98 10 131 -11 37 -22 67 -73 58 -100 -3
-10 -1 -21 4 -25 6 -3 18 -32 27 -63 10 -34 30 -72 51 -96 29 -31 34 -44 31
-72 -3 -29 -1 -34 17 -34 11 0 26 -9 33 -20 7 -11 19 -20 28 -20 13 0 15 7 9
38 -3 20 -15 57 -26 82 -11 25 -29 94 -39 155 -25 142 -65 328 -84 385 -8 25
-29 99 -46 165 -18 66 -43 136 -56 156 -13 19 -24 43 -24 52 0 26 -25 31 -59
11 -36 -21 -57 -9 -23 13 22 15 31 53 12 53 -17 0 -50 39 -50 60 0 12 13 28
32 40 29 17 35 18 55 5 28 -19 33 -19 33 0 0 19 11 19 35 1 16 -12 18 -19 10
-52 -8 -33 -14 -38 -33 -36 -28 4 -28 -3 1 -42 31 -41 72 -143 96 -238 11 -42
26 -87 34 -100 8 -13 23 -66 32 -118 9 -52 24 -126 32 -165 8 -38 19 -107 23
-153 5 -45 17 -106 29 -135 11 -29 23 -61 27 -72 5 -17 8 -15 18 15 12 32 17
35 77 48 35 7 76 15 91 18 24 5 29 2 42 -31 15 -34 36 -41 36 -11 0 8 8 13 17
12 19 -1 83 96 83 127 0 10 11 34 24 54 14 19 22 42 19 50 -9 23 -27 9 -34
-26 -4 -18 -11 -37 -16 -42 -15 -15 -43 1 -43 23 0 10 -11 29 -25 42 -28 26
-33 56 -10 56 7 0 18 8 24 18 9 15 11 16 23 1 7 -9 32 -21 55 -28 37 -10 46
-9 82 10 23 11 41 25 41 30 0 5 3 8 8 7 10 -3 72 26 72 34 0 4 -10 14 -22 23
-17 11 -24 12 -27 3 -2 -7 -11 -19 -18 -27 -14 -14 -27 -11 -73 18 -8 5 -23
12 -34 15 -18 6 -18 17 -1 59 5 12 2 17 -8 17 -23 0 -35 48 -38 160 -1 14 -3
40 -6 58 -4 29 -7 32 -26 26 -12 -4 -30 -8 -40 -9 -20 -2 -61 -71 -53 -91 8
-21 -21 -82 -45 -95 -21 -11 -21 -9 -15 24 6 33 5 36 -24 42 -26 6 -30 11 -29
38 1 48 11 67 55 96 32 22 40 34 45 70 3 26 1 52 -8 68 -7 14 -10 35 -7 48 5
21 1 28 -42 64 -13 11 -15 25 -11 70 8 74 0 103 -24 96 -15 -5 -18 -1 -17 22
0 15 -3 42 -7 60 -6 26 -4 33 15 43 21 11 22 10 16 -13 -5 -20 -1 -26 17 -31
23 -6 47 15 47 42 0 10 8 12 30 7 22 -5 32 -3 36 9 3 9 15 16 25 16 23 0 26
42 4 62 -33 30 -45 38 -55 38 -5 0 -10 9 -10 19 0 11 -4 23 -10 26 -5 3 -10
17 -10 31 0 21 -3 23 -19 14 -13 -7 -22 -7 -26 0 -14 23 -27 9 -22 -25 7 -42
-8 -54 -34 -28 -15 15 -17 25 -10 48 10 35 -2 75 -22 75 -10 0 -13 8 -9 25 4
24 32 36 32 15 0 -5 5 -10 10 -10 18 0 10 21 -17 46 -27 23 -27 25 -9 35 18
11 18 12 -4 24 -22 12 -22 12 16 34 l38 23 38 -21 c21 -11 40 -16 43 -10 11
16 65 11 65 -7 0 -14 2 -14 15 0 35 34 130 31 166 -5 11 -11 24 -17 30 -14 10
7 4 64 -10 100 -5 11 -14 33 -20 48 -7 19 -17 27 -26 23 -10 -3 -12 0 -8 11
11 29 -113 113 -169 113 -30 0 -42 6 -60 30 -12 17 -27 30 -34 30 -7 0 -42 15
-78 34 -36 19 -68 30 -71 26 -9 -14 -76 -5 -112 13 -18 10 -45 17 -61 17 -18
0 -36 9 -50 25 -24 28 -53 24 -45 -6 4 -13 0 -19 -10 -19 -21 0 -33 20 -17 30
8 5 9 13 3 24 -8 14 -11 14 -30 -5z"/>
<path d="M17054 2439 c-13 -15 -19 -36 -19 -69 0 -84 68 -122 114 -64 63 80
-28 206 -95 133z"/>
<path d="M17554 2439 c-13 -15 -19 -36 -19 -69 0 -82 60 -119 104 -64 25 32
28 94 5 129 -20 31 -64 33 -90 4z"/>
<path d="M15998 2413 c-27 -4 -28 -6 -28 -69 0 -50 3 -64 15 -64 11 0 15 12
15 44 0 50 20 75 40 51 7 -8 10 -27 7 -42 -6 -33 1 -53 19 -53 10 0 14 14 14
50 0 43 3 50 20 50 17 0 20 -7 20 -51 0 -43 3 -50 18 -47 11 2 17 13 18 33 4
79 -25 118 -72 96 -15 -6 -25 -7 -29 -1 -4 6 -12 9 -18 9 -7 -1 -24 -4 -39 -6z"/>
<path d="M17858 2413 c-27 -4 -28 -6 -28 -69 0 -50 3 -64 15 -64 11 0 15 12
15 44 0 50 20 75 40 52 6 -8 10 -32 8 -53 -2 -29 1 -38 14 -41 14 -3 17 6 20
50 2 39 7 53 18 53 11 0 16 -14 18 -52 3 -45 6 -53 23 -53 16 0 19 7 19 50 0
69 -43 113 -78 78 -9 -9 -15 -9 -24 0 -7 7 -17 11 -22 11 -6 -1 -23 -4 -38 -6z"/>
<path d="M15710 2178 c-46 -50 -20 -158 39 -158 42 0 66 33 65 91 -1 80 -57
117 -104 67z"/>
<path d="M17054 2179 c-13 -15 -19 -36 -19 -69 0 -56 24 -90 65 -90 41 0 65
34 65 90 0 56 -24 90 -65 90 -15 0 -35 -9 -46 -21z"/>
<path d="M17211 2174 c-28 -35 -29 -114 -3 -137 28 -26 69 -21 88 9 24 36 9
76 -34 89 -38 11 -37 29 1 33 38 5 35 32 -2 32 -20 0 -36 -9 -50 -26z"/>
<path d="M17405 2177 c-38 -59 -11 -157 44 -157 42 0 63 30 63 90 0 35 -5 57
-17 70 -25 28 -71 26 -90 -3z"/>
<path d="M17555 2180 c-13 -14 -19 -36 -19 -70 0 -34 6 -56 19 -70 43 -48 105
-7 105 70 0 77 -62 118 -105 70z"/>
<path d="M16003 2152 l-33 -3 0 -65 c0 -50 3 -64 15 -64 11 0 15 12 15 45 0
32 5 47 15 52 22 8 26 1 28 -49 2 -32 6 -44 20 -46 14 -3 17 4 17 47 0 44 3
51 20 51 17 0 20 -7 20 -51 0 -42 3 -50 17 -47 12 2 18 14 20 38 4 68 -30 111
-70 88 -9 -5 -25 -5 -34 -1 -10 5 -33 7 -50 5z"/>
<path d="M17863 2152 l-33 -3 0 -65 c0 -49 3 -64 14 -64 11 0 16 14 18 48 3
39 6 47 23 47 16 0 20 -7 22 -35 1 -19 2 -41 2 -47 1 -7 8 -13 15 -13 11 0 16
15 18 53 2 38 7 52 18 52 11 0 16 -14 18 -53 3 -44 6 -53 20 -50 13 2 18 16
20 55 3 46 0 54 -22 68 -19 13 -29 14 -45 5 -12 -6 -28 -7 -38 -3 -10 5 -33 7
-50 5z"/>
<path d="M9925 1791 c-3 -2 -5 -361 -5 -798 l0 -793 175 0 175 0 0 320 0 320
75 0 75 0 0 -320 0 -320 170 0 170 0 0 318 0 317 -85 74 c-47 41 -85 77 -85
82 0 4 38 40 85 80 l85 71 0 212 0 212 -117 116 -118 116 -298 -1 c-164 0
-300 -3 -302 -6z m495 -476 l0 -185 -75 0 -75 0 0 185 0 185 75 0 75 0 0 -185z"/>
<path d="M11056 1792 c-7 -12 -23 -114 -51 -327 -14 -104 -32 -242 -41 -305
-8 -63 -19 -146 -24 -185 -10 -79 -40 -298 -70 -515 -12 -80 -23 -171 -26
-202 l-6 -58 171 0 171 0 1 33 c0 17 6 84 12 147 l12 115 98 1 c60 1 100 -3
106 -10 4 -6 11 -42 15 -81 12 -145 18 -190 26 -198 7 -8 329 -11 336 -4 2 1
-8 77 -21 167 -13 91 -31 219 -40 285 -9 66 -20 147 -25 180 -53 355 -78 535
-79 560 0 11 -4 40 -10 65 -9 41 -41 267 -44 315 -2 19 -10 20 -254 23 -138 1
-254 -1 -257 -6z m268 -354 c3 -13 10 -75 15 -138 6 -63 19 -200 30 -305 11
-104 21 -194 21 -198 0 -4 -35 -7 -77 -5 l-78 3 3 75 c1 41 7 116 12 165 5 50
14 160 20 245 7 85 13 161 16 168 6 20 33 13 38 -10z"/>
<path d="M11944 1680 l-114 -115 0 -567 0 -566 123 -116 122 -115 186 -1 187
0 51 50 c34 33 60 50 76 50 14 0 25 4 25 10 0 5 -7 7 -15 4 -28 -11 -15 11 35
60 44 42 50 54 50 90 1 22 2 121 3 219 2 98 0 182 -3 188 -4 6 -70 8 -171 7
l-164 -3 -2 -155 c-1 -85 -2 -172 -2 -192 l-1 -38 -44 0 c-24 0 -58 3 -75 6
l-31 7 0 498 0 499 75 0 c64 0 75 -2 76 -17 1 -10 2 -79 3 -153 l1 -135 70 -5
c77 -6 252 -3 264 4 4 3 7 89 6 191 -2 184 -2 187 -26 208 -13 12 -30 34 -38
50 -8 15 -21 27 -30 27 -8 0 -41 28 -73 63 l-58 62 -196 0 -196 0 -114 -115z"/>
<path d="M12825 1001 l0 -796 328 -3 327 -2 0 145 0 145 -27 0 c-16 1 -84 2
-153 3 l-125 2 0 200 0 200 121 3 121 3 5 62 c3 34 4 100 3 147 l-2 85 -99 1
c-54 1 -111 2 -127 3 l-27 1 2 148 3 147 148 3 148 3 -3 147 -3 147 -320 1
-321 0 1 -795z"/>
<path d="M13734 1789 c-8 -14 -4 -487 5 -554 16 -113 70 -455 82 -523 l11 -63
71 3 71 3 17 115 c9 63 31 203 49 310 30 181 32 214 33 455 l2 260 -168 0
c-93 1 -170 -2 -173 -6z"/>
<path d="M15410 800 l0 -800 3940 0 3940 0 0 800 0 800 -3940 0 -3940 0 0
-800z m3568 324 c2 -128 2 -132 -19 -137 -13 -3 -26 -4 -31 -1 -10 6 -11 258
-1 268 4 4 16 6 28 4 19 -3 20 -11 23 -134z m1460 70 l3 -52 28 11 c23 9 34 7
55 -6 24 -16 26 -23 26 -86 0 -46 -4 -70 -12 -73 -28 -10 -38 4 -38 52 0 38
-4 52 -18 59 -28 15 -42 -5 -42 -60 0 -35 -4 -49 -17 -53 -29 -11 -35 9 -39
121 -4 127 0 145 29 141 19 -3 22 -10 25 -54z m-4490 2 c15 -24 35 -58 44 -75
30 -55 42 -39 34 45 l-7 75 33 -3 33 -3 2 -90 c4 -116 -3 -152 -27 -160 -36
-11 -54 4 -99 80 -24 41 -48 75 -52 75 -5 0 -9 -36 -9 -80 0 -83 -4 -89 -44
-74 -13 5 -16 26 -16 130 l0 124 40 0 c37 0 43 -4 68 -44z m356 11 c20 -27 20
-29 3 -58 -16 -29 -16 -31 4 -58 43 -59 0 -101 -106 -104 l-70 -2 -3 128 -3
128 77 -3 c71 -3 79 -5 98 -31z m479 22 c30 -16 37 -28 37 -66 0 -21 -8 -41
-22 -55 l-22 -22 27 -48 c22 -40 25 -50 13 -54 -30 -12 -52 3 -78 51 -35 64
-52 64 -58 0 -4 -37 -9 -51 -23 -53 -26 -5 -32 25 -29 147 l3 111 65 0 c36 0
75 -5 87 -11z m4055 -64 c2 -48 8 -72 18 -78 18 -10 18 -31 -1 -47 -8 -7 -15
-20 -15 -30 0 -22 -39 -34 -46 -14 -2 8 -6 21 -9 29 -3 11 -19 15 -60 15 -76
0 -75 14 13 138 38 53 49 63 71 60 25 -3 26 -6 29 -73z m222 51 c0 -22 -5 -25
-47 -28 -48 -3 -75 -28 -30 -28 61 0 102 -73 73 -129 -28 -53 -116 -61 -152
-13 -18 23 -17 30 7 42 16 9 24 8 39 -5 24 -22 54 -15 58 13 4 25 -11 33 -65
35 -29 2 -38 6 -37 20 0 9 1 40 2 67 l2 50 75 0 c73 0 75 -1 75 -24z m190 -1
c18 -19 25 -40 28 -84 8 -105 -44 -165 -118 -139 -72 24 -89 161 -28 225 30
32 86 32 118 -2z m217 -14 c35 -51 32 -136 -4 -179 -36 -41 -69 -48 -110 -23
-39 24 -56 77 -46 147 9 67 39 96 95 92 35 -2 46 -9 65 -37z m-3872 -15 c0
-10 10 -22 23 -27 28 -10 29 -45 2 -54 -14 -4 -20 -15 -20 -35 0 -19 6 -29 20
-33 24 -6 27 -42 4 -51 -24 -9 -63 4 -74 24 -6 10 -10 34 -10 53 0 22 -6 37
-15 41 -8 3 -15 15 -15 26 0 11 7 23 15 26 8 4 15 14 15 23 0 24 10 32 35 29
12 -2 20 -11 20 -22z m475 4 c0 -13 10 -24 25 -30 15 -6 25 -17 25 -30 0 -13
-10 -24 -25 -30 -15 -6 -25 -17 -25 -30 0 -13 10 -24 25 -30 28 -11 34 -44 9
-54 -49 -19 -84 10 -84 68 0 30 -5 44 -20 54 -25 15 -25 28 -1 49 11 9 17 21
14 26 -7 11 16 27 40 27 10 0 17 -8 17 -20z m2240 -5 c0 -15 6 -25 15 -25 21
0 37 -34 23 -48 -7 -7 -18 -12 -25 -12 -21 0 -16 -51 6 -57 24 -6 33 -39 15
-53 -13 -12 -49 -6 -71 12 -7 6 -13 30 -13 54 0 34 -4 44 -20 49 -23 7 -27 40
-5 49 8 3 20 17 25 31 13 34 50 35 50 0z m-3316 -50 c25 -24 35 -68 17 -79 -5
-3 -7 -15 -4 -25 7 -29 -44 -53 -87 -41 -62 18 -90 63 -69 112 24 57 98 75
143 33z m158 14 c14 -8 23 -8 31 0 17 17 45 13 49 -6 4 -17 4 -88 0 -161 -4
-67 -85 -103 -157 -70 -28 13 -32 30 -11 47 11 10 20 10 36 1 24 -13 70 -6 70
10 0 6 0 13 0 17 0 4 -17 6 -38 5 -66 -4 -104 51 -78 112 21 51 57 67 98 45z
m323 -1 c14 -6 25 -15 25 -19 0 -12 -38 -30 -54 -27 -31 6 -19 -16 14 -27 37
-12 51 -44 30 -69 -14 -18 -79 -26 -107 -13 -43 19 -19 60 28 50 45 -9 35 15
-11 27 -31 8 -40 16 -40 32 0 50 57 73 115 46z m470 -13 c21 -20 25 -34 25
-84 0 -61 -10 -76 -41 -60 -9 5 -29 4 -46 -3 -24 -9 -34 -8 -56 7 -49 32 -27
80 44 91 25 4 39 12 39 21 0 12 -9 14 -45 9 -37 -6 -45 -5 -45 9 0 38 90 46
125 10z m453 -10 c61 -71 -20 -170 -110 -132 -46 19 -60 39 -56 83 6 78 113
109 166 49z m99 24 c8 -8 17 -7 32 3 18 11 26 11 49 -2 24 -14 28 -23 33 -80
4 -50 2 -68 -9 -77 -25 -20 -42 -4 -42 41 0 50 -11 69 -36 64 -15 -2 -20 -14
-22 -56 -3 -51 -4 -53 -29 -50 -26 3 -26 5 -25 76 0 39 1 77 1 82 1 13 34 13
48 -1z m387 -2 c11 -8 15 -19 10 -30 -6 -18 -14 -20 -50 -18 -11 1 -27 -5 -34
-13 -18 -22 5 -49 37 -43 25 5 59 -25 48 -42 -8 -14 -80 -14 -106 -1 -10 6
-26 24 -34 41 -14 27 -14 33 0 63 24 51 89 72 129 43z m273 -7 c78 -47 43
-150 -51 -153 -94 -3 -132 106 -53 153 17 11 41 20 52 20 11 0 35 -9 52 -20z
m181 4 c22 -15 22 -17 6 -35 -12 -14 -21 -16 -35 -9 -12 7 -20 7 -24 0 -3 -6
2 -13 12 -16 53 -17 63 -24 63 -49 0 -44 -51 -62 -117 -41 -46 15 -18 59 30
49 42 -9 31 16 -13 31 -43 14 -52 47 -18 70 29 20 67 20 96 0z m175 5 c35 -16
65 -89 37 -89 -5 0 -10 -13 -10 -29 0 -31 -14 -41 -60 -41 -46 0 -76 16 -90
49 -17 42 -6 78 33 101 37 23 56 25 90 9z m182 -1 c14 -6 25 -14 25 -18 0 -12
-28 -31 -42 -29 -26 3 -39 -1 -33 -11 3 -5 14 -10 24 -10 11 0 29 -8 41 -18
54 -44 -34 -101 -101 -67 -29 16 -30 17 -14 35 12 14 25 17 46 13 19 -3 29 -1
29 6 0 6 -13 14 -29 17 -17 4 -37 15 -47 25 -15 17 -14 19 10 43 28 28 52 32
91 14z m213 -35 c16 -49 29 -55 37 -15 10 45 21 57 51 57 25 0 29 -4 37 -42 4
-24 12 -43 17 -43 4 0 14 19 22 43 l13 42 55 0 55 0 3 -81 c2 -68 0 -83 -14
-88 -28 -11 -34 3 -34 81 0 65 -2 74 -15 63 -8 -6 -21 -35 -29 -63 -20 -70
-37 -91 -64 -83 -12 4 -22 12 -22 17 0 5 -7 26 -16 47 l-16 37 -18 -50 c-15
-42 -21 -50 -41 -47 -29 3 -26 -2 -60 82 -31 77 -30 93 4 88 16 -2 26 -15 35
-45z m1912 -13 c4 -43 9 -56 24 -58 26 -5 36 15 36 71 0 43 2 47 25 47 22 0
25 -4 27 -42 5 -114 -7 -152 -42 -130 -14 8 -27 9 -45 2 -53 -20 -85 19 -85
103 0 60 5 69 35 65 17 -3 21 -12 25 -58z m198 48 c9 -9 15 -9 24 0 17 17 48
15 70 -5 14 -12 18 -31 18 -83 0 -59 -3 -68 -19 -73 -27 -7 -31 0 -31 53 0 56
-19 80 -44 55 -10 -10 -16 -33 -16 -60 0 -50 -10 -61 -40 -45 -19 10 -21 19
-19 78 2 37 5 73 7 80 5 15 34 16 50 0z m199 1 c8 -8 16 -7 30 2 25 15 70 5
77 -19 2 -9 6 -44 8 -77 3 -59 2 -60 -24 -63 -27 -3 -28 -2 -28 46 0 58 -18
82 -44 57 -10 -10 -16 -33 -16 -61 0 -44 -1 -45 -27 -42 -27 3 -28 5 -30 73
-1 39 0 76 3 83 4 15 36 16 51 1z m297 -14 c25 -24 35 -68 17 -79 -5 -3 -7
-15 -4 -25 8 -30 -49 -56 -90 -42 -48 17 -67 40 -67 81 0 79 86 119 144 65z
m311 11 c27 -19 13 -50 -20 -43 -42 7 -39 -12 4 -29 49 -19 56 -52 16 -78 -29
-19 -55 -20 -90 -4 -44 20 -23 61 26 51 18 -3 29 -1 29 6 0 6 -8 11 -18 11
-24 0 -62 28 -62 46 0 43 75 69 115 40z m-5134 -333 c1 -10 0 -34 -1 -55 l-1
-36 41 5 c55 8 90 -23 90 -79 0 -59 -60 -105 -107 -80 -13 7 -24 6 -38 -4 -42
-31 -45 -22 -45 119 0 74 3 137 7 140 14 15 53 7 54 -10z m517 -115 l-3 -133
-25 0 -25 0 -3 133 -3 132 31 0 31 0 -3 -132z m358 120 c4 -6 -4 -21 -21 -34
-35 -28 -28 -54 15 -54 25 0 30 4 30 24 0 26 20 39 45 30 8 -4 15 -15 15 -25
0 -12 10 -23 25 -29 14 -5 25 -16 25 -25 0 -8 -11 -17 -25 -21 -20 -5 -25 -13
-25 -35 0 -22 6 -32 25 -39 28 -11 33 -35 9 -44 -51 -20 -96 14 -92 70 1 22
-3 39 -12 44 -38 24 -58 5 -62 -60 -3 -51 -5 -55 -28 -55 -23 0 -25 4 -28 55
-2 35 -9 58 -18 63 -18 11 -18 43 1 51 8 3 15 16 15 28 0 40 27 68 65 68 19 0
37 -5 41 -12z m-1802 -12 c99 -41 100 -190 1 -232 -41 -17 -141 -19 -151 -3
-8 14 -8 224 0 238 10 16 110 14 150 -3z m686 -47 c0 -12 10 -23 25 -29 14 -5
25 -16 25 -25 0 -9 -11 -20 -25 -25 -35 -13 -32 -46 5 -65 33 -17 33 -17 24
-39 -8 -21 -62 -21 -86 1 -11 10 -18 30 -18 54 0 28 -5 41 -20 49 -11 6 -20
17 -20 25 0 8 9 19 20 25 11 6 20 19 20 29 0 24 7 30 31 24 10 -3 19 -14 19
-24z m1860 0 c0 -12 10 -23 25 -29 14 -5 25 -16 25 -25 0 -9 -11 -20 -25 -25
-37 -14 -31 -70 7 -70 14 0 19 -6 16 -22 -2 -18 -11 -24 -35 -26 -46 -5 -74
26 -66 71 4 29 1 37 -16 46 -26 15 -27 37 -1 51 11 6 20 19 20 30 0 10 6 20
13 23 20 7 37 -4 37 -24z m1058 3 c2 -14 14 -27 28 -33 31 -11 29 -43 -4 -47
-33 -5 -31 -59 3 -72 14 -5 25 -16 25 -25 0 -22 -49 -31 -79 -14 -21 12 -27
23 -29 59 -2 31 -9 50 -24 61 -22 17 -17 39 8 39 8 0 14 10 14 23 0 30 9 39
35 35 12 -2 21 -12 23 -26z m1112 -2 c0 -13 10 -24 26 -30 29 -12 28 -30 -4
-45 -32 -14 -30 -62 3 -75 28 -11 31 -20 13 -38 -35 -35 -104 8 -94 59 4 22 0
34 -14 46 -24 20 -26 53 -5 53 9 0 15 9 15 25 0 21 5 25 30 25 23 0 30 -4 30
-20z m-336 -29 c3 -5 24 -7 46 -4 61 8 80 -14 80 -93 0 -66 -8 -79 -40 -69
-16 5 -20 15 -20 56 0 36 -4 51 -16 56 -24 9 -37 -13 -36 -61 2 -37 -1 -46
-18 -51 -11 -3 -24 -3 -30 0 -15 9 -13 162 3 168 19 8 25 8 31 -2z m-4133 -11
c10 -6 26 -24 35 -41 44 -87 -86 -161 -157 -90 -40 40 -36 93 10 128 20 15 85
17 112 3z m228 -13 c7 -13 11 -49 9 -82 -3 -53 -5 -60 -25 -63 -24 -4 -26 0
-24 58 2 43 -10 63 -35 58 -15 -2 -20 -15 -24 -58 -5 -51 -7 -55 -30 -55 -24
0 -25 3 -28 69 -2 38 -1 74 1 81 3 7 32 12 75 13 62 1 70 -1 81 -21z m760 -3
c22 -28 28 -69 11 -79 -5 -3 -7 -12 -4 -20 8 -20 -56 -50 -89 -41 -37 9 -65
37 -72 73 -6 28 -2 38 23 63 41 41 101 42 131 4z m396 1 c25 -24 34 -75 14
-75 -6 0 -8 -8 -4 -19 5 -15 -1 -24 -26 -36 -91 -48 -184 58 -113 129 36 35
95 36 129 1z m589 -1 c57 -58 17 -139 -69 -139 -56 0 -95 33 -95 82 0 78 106
114 164 57z m106 -23 c0 -56 19 -82 45 -61 10 8 15 30 15 61 0 45 2 49 24 49
22 0 24 -5 31 -71 5 -46 3 -75 -3 -81 -6 -6 -38 -12 -70 -14 -77 -4 -90 9 -92
91 -2 79 -4 75 25 75 23 0 25 -3 25 -49z m677 27 c23 -22 32 -78 12 -78 -6 0
-8 -8 -4 -19 4 -13 -1 -24 -17 -35 -33 -23 -72 -20 -107 10 -64 53 -28 144 57
144 23 0 44 -8 59 -22z m235 -83 c-3 -113 -12 -130 -78 -145 -38 -9 -104 5
-104 21 0 32 14 40 56 33 29 -4 49 -2 59 6 25 21 17 29 -29 27 -60 -3 -86 21
-86 79 0 66 25 84 114 81 l71 -2 -3 -100z m248 90 c19 -23 -5 -47 -37 -38 -19
4 -24 2 -21 -8 2 -8 16 -15 30 -17 32 -4 61 -34 53 -54 -18 -47 -145 -49 -145
-3 0 19 36 39 45 25 9 -14 37 -12 33 2 -3 7 -18 16 -36 20 -66 17 -44 88 28
88 21 0 43 -7 50 -15z m337 -7 c23 -22 31 -72 13 -83 -5 -3 -7 -12 -4 -20 3
-8 -5 -21 -20 -30 -54 -35 -146 13 -146 76 0 65 107 104 157 57z m457 -3 c31
-28 36 -84 9 -110 -62 -63 -173 -26 -173 57 0 71 107 106 164 53z m744 12 c9
-7 16 -7 24 1 7 7 27 12 45 12 42 0 56 -26 57 -105 1 -58 0 -60 -24 -60 -23 0
-25 4 -28 53 -5 87 -58 82 -64 -6 -3 -39 -6 -47 -23 -47 -17 0 -20 8 -23 53
-5 87 -57 85 -54 -2 2 -37 -1 -46 -18 -51 -33 -11 -40 3 -40 84 l0 79 68 0
c37 0 73 -5 80 -11z m307 -12 c25 -24 33 -69 15 -80 -5 -3 -7 -12 -4 -20 8
-21 -56 -50 -91 -41 -39 10 -75 50 -75 84 0 72 103 110 155 57z"/>
<path d="M7705 839 c4 -5 -10 -29 -31 -54 -33 -41 -34 -45 -15 -45 13 0 21 6
21 16 0 13 3 14 15 4 8 -6 19 -9 25 -5 16 10 39 -25 40 -58 0 -48 -33 -54
-154 -29 -56 12 -113 22 -124 22 -15 0 -20 4 -15 16 4 12 14 14 34 10 31 -6
35 4 23 52 -9 32 -26 27 -49 -16 -24 -44 -37 -44 -42 0 -2 17 -5 34 -8 36 -9
9 -36 -21 -50 -55 -8 -18 -19 -33 -25 -33 -10 0 -8 19 7 73 2 9 0 17 -6 17 -6
0 -11 -11 -11 -25 0 -14 -4 -25 -9 -25 -5 0 -12 11 -15 25 -7 28 -26 34 -26 9
0 -12 -6 -15 -23 -10 -13 3 -31 0 -40 -7 -14 -10 -14 -14 -1 -25 12 -11 14 -9
14 8 0 11 4 20 9 20 14 0 33 -28 26 -40 -3 -5 -2 -10 3 -10 5 0 13 10 19 23
l10 22 8 -24 c8 -28 3 -33 -56 -55 -25 -9 -57 -28 -70 -42 l-24 -26 38 25 c71
48 226 58 332 21 22 -7 54 -14 71 -14 16 0 35 -5 40 -10 15 -15 105 5 121 26
25 35 8 94 -34 113 -25 12 -22 37 4 27 8 -3 12 -2 8 3 -3 5 0 11 7 13 7 3 -2
12 -20 21 -18 8 -30 11 -27 6z"/>
<path d="M2328 590 c-10 -11 -13 -22 -8 -25 15 -9 12 -25 -5 -25 -7 0 -19 8
-24 18 -10 16 -10 16 -11 0 0 -11 -8 -18 -20 -18 -16 0 -20 -7 -20 -34 l0 -35
-44 3 c-41 2 -67 14 -89 41 -5 6 -6 -2 -3 -17 5 -22 3 -28 -10 -28 -13 0 -14
-3 -4 -15 7 -8 19 -15 26 -15 19 0 18 -26 -1 -34 -8 -3 -15 -12 -15 -21 0 -8
-5 -15 -11 -15 -6 0 -8 9 -4 23 4 15 4 18 -3 8 -6 -8 -15 -10 -22 -6 -9 6 -6
13 11 26 19 15 21 19 7 19 -21 0 -43 -36 -28 -45 6 -4 9 -14 6 -23 -11 -37
-14 -102 -5 -107 16 -10 10 -27 -8 -21 -11 5 -24 -2 -39 -21 l-23 -28 1 43 c0
41 11 55 21 30 3 -7 6 -3 6 9 1 12 -3 25 -9 28 -5 3 -10 1 -10 -5 0 -7 -6 -10
-14 -7 -7 3 -19 0 -25 -6 -9 -9 -11 -5 -9 13 3 28 34 46 52 31 6 -6 17 -6 24
-2 10 6 10 11 -3 21 -12 10 -13 16 -4 27 9 10 9 12 -3 8 -8 -3 -27 6 -43 21
-17 16 -41 27 -57 27 -15 0 -25 4 -22 9 3 4 12 8 20 8 24 0 15 15 -16 27 -26
10 -30 9 -28 -4 2 -9 -3 -18 -9 -20 -7 -3 -13 2 -13 11 0 42 -36 -5 -42 -54
-3 -21 -8 -25 -32 -23 -27 2 -28 0 -22 -29 5 -24 3 -29 -9 -24 -18 7 -32 -14
-15 -24 9 -5 9 -9 1 -14 -6 -4 -11 -2 -11 4 0 6 -4 9 -10 5 -5 -3 -6 -13 -3
-23 4 -10 2 -14 -3 -9 -14 13 -11 67 4 67 6 0 12 9 12 20 0 21 -15 27 -25 10
-11 -17 -24 -11 -31 15 -3 14 -10 22 -15 19 -5 -3 -9 0 -9 6 0 7 6 10 14 7 19
-7 35 11 29 33 -6 23 -53 36 -64 18 -11 -17 -11 -26 1 -33 12 -7 13 -25 3 -25
-14 0 -30 46 -22 66 4 10 8 28 8 39 -1 14 -2 16 -6 5 -12 -32 -37 -50 -72 -51
-31 -1 -33 -2 -11 -8 l25 -7 -32 -28 c-24 -21 -30 -33 -24 -45 13 -26 12 -91
-2 -91 -8 -1 -6 -5 4 -13 9 -7 18 -19 22 -27 3 -9 6 -4 6 13 1 29 18 35 40 15
11 -11 13 -7 8 22 -3 19 -3 29 0 23 7 -20 23 -15 45 12 19 25 38 33 38 17 0
-5 -8 -17 -19 -28 -10 -11 -22 -30 -25 -42 -4 -12 -16 -22 -26 -22 -10 0 -22
-5 -25 -10 -3 -6 -2 -10 4 -10 6 0 8 -7 5 -15 -4 -8 -13 -15 -22 -15 -13 0
-13 -2 2 -13 17 -12 17 -14 2 -20 -9 -4 -16 -11 -16 -17 0 -16 22 -12 36 8 12
15 13 12 14 -25 0 -44 -7 -52 -28 -31 -9 9 -13 7 -18 -7 -5 -11 -1 -22 10 -30
17 -13 13 -43 -8 -57 -6 -4 17 -7 51 -7 35 1 60 6 57 10 -3 5 -10 7 -15 4 -5
-4 -9 -1 -9 4 0 6 11 11 25 11 17 0 25 -6 25 -17 0 -16 2 -16 11 -3 8 11 12
12 16 3 7 -18 23 -16 23 1 0 8 5 18 12 22 7 5 9 1 6 -13 -5 -18 -1 -21 29 -21
27 0 32 3 23 13 -8 9 -8 14 0 17 6 2 8 16 4 35 -4 18 -11 30 -16 27 -6 -4 -8
-17 -5 -30 3 -16 0 -24 -9 -24 -8 0 -13 6 -12 12 2 8 -6 12 -19 10 -18 -3 -23
2 -23 18 0 12 -5 18 -10 15 -6 -3 -5 6 2 21 l13 27 5 -24 c4 -15 13 -24 25
-24 29 0 29 28 0 42 -24 11 -65 7 -65 -6 0 -3 -11 -7 -25 -7 -14 -1 -25 2 -25
7 0 5 11 9 25 9 16 0 25 6 25 16 0 8 -4 13 -10 9 -5 -3 -21 -3 -35 1 -20 5
-23 9 -14 20 6 7 8 17 5 22 -3 6 1 15 9 22 12 10 15 10 15 -1 0 -10 3 -10 12
-1 7 7 17 12 22 12 6 -1 -2 -12 -19 -25 -16 -13 -25 -28 -21 -32 5 -4 11 -2
13 5 6 15 39 16 48 2 9 -14 25 -2 25 18 0 10 8 25 18 34 39 38 46 50 31 59
-17 10 -8 20 23 23 12 2 33 6 46 10 20 7 22 4 22 -28 0 -22 5 -36 13 -36 7 0
18 -9 25 -20 7 -12 17 -18 22 -15 5 3 12 0 16 -6 4 -8 9 -7 15 2 6 9 9 1 9
-24 0 -34 2 -38 21 -32 18 6 20 4 14 -14 -4 -12 -2 -21 4 -21 6 0 11 8 11 18
0 9 4 23 8 30 6 8 9 2 9 -17 0 -30 -5 -34 -92 -72 -16 -7 -34 -15 -39 -17 -4
-3 -5 5 -2 16 4 11 2 23 -4 27 -6 3 -8 11 -5 16 4 5 1 9 -4 9 -17 0 -13 28 6
38 10 6 14 16 10 26 -10 26 -26 19 -42 -21 -9 -21 -20 -40 -25 -43 -5 -3 -11
-16 -13 -28 -2 -12 -6 -25 -10 -28 -8 -8 -10 -44 -2 -44 3 0 14 5 24 12 19 12
18 48 -2 48 -8 0 -8 3 0 11 17 17 43 3 43 -22 0 -11 -16 -35 -35 -51 -19 -17
-32 -35 -29 -40 3 -4 50 -8 105 -7 78 0 99 4 99 15 0 8 9 14 20 14 13 0 18 -5
14 -15 -5 -12 2 -15 34 -15 41 0 56 11 65 45 5 19 5 19 12 -2 4 -13 14 -23 21
-23 8 0 14 -4 14 -10 0 -5 10 -10 23 -9 12 0 16 3 10 6 -7 2 -13 12 -13 20 0
13 3 13 15 3 12 -10 15 -10 15 4 0 9 5 16 10 16 6 0 10 -7 10 -15 0 -8 5 -15
11 -15 5 0 7 -5 3 -11 -4 -7 -2 -9 7 -5 8 3 22 9 32 12 18 7 22 20 8 28 -9 6
-7 48 4 66 4 6 1 17 -5 25 -8 9 -8 15 -2 15 5 0 15 -13 21 -30 5 -16 17 -30
25 -30 11 0 16 -9 16 -28 0 -45 16 -52 61 -28 37 20 52 46 26 46 -7 0 -17 10
-22 23 -7 15 -18 21 -33 20 -12 -2 -22 1 -22 6 0 14 43 21 56 10 24 -20 23 9
-1 37 -22 26 -30 26 -26 1 1 -5 -3 -6 -9 -2 -6 4 -8 16 -5 28 2 12 2 16 -1 10
-3 -7 -15 -13 -27 -13 -20 0 -20 -1 -2 -14 11 -8 16 -19 12 -30 -7 -19 -39
-22 -36 -4 3 29 -2 48 -12 45 -6 -1 -14 4 -16 11 -5 12 13 16 50 13 24 -3 21
8 -9 36 -19 18 -33 23 -51 18 -22 -5 -24 -3 -18 17 5 20 4 21 -5 6 -6 -10 -16
-18 -23 -18 -7 0 -18 -9 -25 -20 -17 -27 -29 -25 -29 5 0 17 5 25 17 25 32 0
50 12 50 32 0 25 44 68 70 68 24 0 26 9 3 25 -18 13 -10 35 13 35 8 0 14 5 14
10 0 29 -63 -3 -66 -34 0 -6 -2 -18 -2 -26 -2 -10 -7 -8 -18 8 -18 25 -49 31
-40 6 3 -8 2 -12 -4 -9 -6 3 -10 1 -10 -5 0 -8 -9 -10 -25 -6 -17 4 -25 2 -25
-6 0 -16 -51 -46 -68 -40 -6 2 -12 8 -12 14 0 6 6 8 14 5 21 -8 43 20 28 35
-15 15 -16 48 -2 48 6 0 10 -9 10 -19 0 -10 7 -21 15 -25 8 -3 15 -1 15 5 0 6
4 8 9 5 5 -3 21 4 37 17 16 12 44 30 64 39 29 14 31 17 13 17 -27 1 -31 21 -5
21 24 1 61 31 45 37 -8 3 -11 14 -7 29 7 29 4 30 -18 4z"/>
<path d="M4012 520 c7 -10 33 -46 57 -81 25 -35 48 -65 53 -67 4 -2 8 -9 8
-15 0 -7 11 -23 25 -35 14 -13 40 -50 60 -82 19 -32 42 -60 50 -63 8 -4 24
-25 35 -47 29 -57 76 -104 95 -96 15 5 14 10 -5 36 -12 16 -25 30 -30 30 -5 0
-16 15 -25 34 -9 18 -31 50 -50 71 -19 21 -35 41 -35 45 0 4 -18 27 -40 51
-22 24 -40 47 -40 50 0 3 -15 23 -34 43 -19 20 -47 58 -62 85 -18 33 -34 51
-50 54 -22 4 -23 2 -12 -13z"/>
<path d="M13730 350 l0 -150 172 2 172 3 -1 145 0 145 -172 3 -171 2 0 -150z"/>
<path d="M665 470 c-14 -5 -14 -8 -3 -17 7 -6 20 -13 28 -16 12 -4 11 -6 -2
-6 -24 -1 -23 -18 2 -31 10 -6 17 -16 14 -24 -9 -24 25 -27 46 -4 l20 22 0
-22 c0 -20 4 -21 49 -18 36 3 51 1 53 -9 2 -10 9 -9 27 6 21 17 23 23 12 45
-9 19 -9 30 0 40 14 17 5 30 -26 36 -19 4 -25 1 -25 -13 0 -10 -10 -35 -22
-56 -17 -28 -24 -33 -26 -20 -2 9 -8 17 -13 17 -6 0 -7 5 -4 10 4 6 10 8 15 5
5 -3 12 -1 15 5 4 6 3 9 -2 8 -4 -1 -19 4 -33 11 -14 8 -22 10 -18 6 4 -4 2
-17 -4 -28 -9 -18 -11 -19 -20 -4 -5 10 -7 21 -4 25 7 12 -59 39 -79 32z"/>
</g>
</svg>
